<svg width="160" height="160" viewBox="0 0 160 160" fill="none" xmlns="http://www.w3.org/2000/svg">
<rect width="160" height="160" fill="#30B0C7"/>
<path d="M66.2553 128.062L65.639 133.519H33.8352C31.9492 112.856 31 90.9768 31 67.907C31 53.5194 31.3698 38.8837 32.1094 24H67.6113C67.8579 34.4186 67.9811 44.7132 67.9811 54.8837C73.7379 51.4977 80.641 49.7985 88.6906 49.7985C96.7401 49.7985 104.186 51.5101 110.263 54.9457C116.34 58.3814 120.987 63.3178 124.192 69.7674C127.397 76.2171 129 83.907 129 92.8372C129 101.767 127.397 109.482 124.192 115.969C120.987 122.456 116.34 127.417 110.263 130.853C104.186 134.288 96.9867 136 88.6906 136C80.3945 136 72.5791 133.358 66.2553 128.062ZM89.3686 104.372C91.5504 101.805 92.6352 97.9597 92.6352 92.8372C92.6352 87.7147 91.5504 83.9938 89.3686 81.4264C87.1867 78.8589 84.1665 77.5814 80.3082 77.5814C76.4498 77.5814 73.4297 78.8589 71.2478 81.4264C69.0659 83.9938 67.9811 87.7892 67.9811 92.8372C67.9811 97.8853 69.0659 101.805 71.2478 104.372C73.4297 106.94 76.4498 108.217 80.3082 108.217C84.1665 108.217 87.1867 106.94 89.3686 104.372Z" fill="#121212"/>
<path d="M66.2553 128.062L65.639 133.519H33.8352C31.9492 112.856 31 90.9768 31 67.907C31 53.5194 31.3698 38.8837 32.1094 24H67.6113C67.8579 34.4186 67.9811 44.7132 67.9811 54.8837C73.7379 51.4977 80.641 49.7985 88.6906 49.7985C96.7401 49.7985 104.186 51.5101 110.263 54.9457C116.34 58.3814 120.987 63.3178 124.192 69.7674C127.397 76.2171 129 83.907 129 92.8372C129 101.767 127.397 109.482 124.192 115.969C120.987 122.456 116.34 127.417 110.263 130.853C104.186 134.288 96.9867 136 88.6906 136C80.3945 136 72.5791 133.358 66.2553 128.062ZM89.3686 104.372C91.5504 101.805 92.6352 97.9597 92.6352 92.8372C92.6352 87.7147 91.5504 83.9938 89.3686 81.4264C87.1867 78.8589 84.1665 77.5814 80.3082 77.5814C76.4498 77.5814 73.4297 78.8589 71.2478 81.4264C69.0659 83.9938 67.9811 87.7892 67.9811 92.8372C67.9811 97.8853 69.0659 101.805 71.2478 104.372C73.4297 106.94 76.4498 108.217 80.3082 108.217C84.1665 108.217 87.1867 106.94 89.3686 104.372Z" fill="black" fill-opacity="0.2"/>
</svg>
