<svg width="160" height="160" viewBox="0 0 160 160" fill="none" xmlns="http://www.w3.org/2000/svg">
<rect width="160" height="160" rx="34" fill="#30B0C7"/>
<path d="M108.333 47.833V71.833L141 75.5L135.333 120.5L112.833 130.5L87.667 122.5L65.667 129.833L50.333 100.5H19V47.833L63.667 29.5L108.333 47.833Z" fill="#FDFDFE"/>
<path d="M39.0973 91.476L38.8625 93.555H26.7468C26.0283 85.6832 25.6667 77.3483 25.6667 68.5598C25.6667 63.0788 25.8076 57.5033 26.0893 51.8333H39.6138C39.7078 55.8023 39.7547 59.7241 39.7547 63.5986C41.9478 62.3086 44.5775 61.6613 47.644 61.6613C50.7105 61.6613 53.5469 62.3134 55.8621 63.6222C58.1772 64.931 59.9476 66.8116 61.1686 69.2686C62.3895 71.7256 63 74.6551 63 78.057C63 81.459 62.3895 84.398 61.1686 86.8691C59.9476 89.3403 58.1772 91.2303 55.8621 92.5391C53.5469 93.848 50.8044 94.5 47.644 94.5C44.4836 94.5 41.5063 93.4936 39.0973 91.476ZM47.9023 82.4513C48.7335 81.4732 49.1468 80.0085 49.1468 78.057C49.1468 76.1056 48.7335 74.6881 47.9023 73.7101C47.0711 72.732 45.9206 72.2453 44.4507 72.2453C42.9809 72.2453 41.8304 72.732 40.9992 73.7101C40.168 74.6881 39.7547 76.134 39.7547 78.057C39.7547 79.9801 40.168 81.4732 40.9992 82.4513C41.8304 83.4294 42.9809 83.916 44.4507 83.916C45.9206 83.916 47.0711 83.4294 47.9023 82.4513Z" fill="#040000"/>
<path d="M85.1765 113.32C83.9372 115.796 81.4491 117.655 77.7029 118.898C74.2524 120.045 71.3418 120.136 68.9711 119.177C66.6004 118.219 64.9057 116.175 63.8917 113.049C62.8636 109.895 63.0654 107.215 64.4879 105.015C65.9103 102.809 68.4688 101.097 72.154 99.873C73.9379 99.2801 75.4683 98.8912 76.7405 98.7014C78.0127 98.5117 79.1347 98.5402 80.1018 98.7821C79.4633 97.7291 78.67 97.0935 77.7264 96.8753C76.7828 96.6572 75.5293 96.7236 73.9614 97.0746C73.0506 97.3117 72.3559 97.5062 71.8817 97.6674C70.3936 98.1607 68.9242 98.801 67.4642 99.5837C66.0042 100.366 64.6944 101.201 63.5349 102.088L59 92.7109C60.1924 91.7148 61.8214 90.6761 63.8917 89.5899C65.9573 88.5037 68.1355 87.5788 70.4264 86.8199C72.5061 86.1274 74.4731 85.6437 76.3274 85.3591C80.1206 84.7662 83.5663 85.544 86.6741 87.6879C89.7772 89.8366 92.1995 93.3844 93.9412 98.3315C94.6829 100.513 95.3401 102.752 95.9035 105.043C96.4668 107.334 96.8752 109.473 97.1241 111.451L85.9746 115.155L85.1812 113.32H85.1765ZM82.6321 108.15C83.2189 107.571 83.3739 106.864 83.1016 106.02C82.8293 105.176 82.28 104.706 81.4538 104.597C80.6276 104.488 79.5619 104.654 78.2522 105.086C76.9424 105.517 76.041 106.011 75.4542 106.589C74.8674 107.168 74.7125 107.875 74.9848 108.719C75.2571 109.563 75.8016 110.037 76.6138 110.151C77.4259 110.265 78.4681 110.109 79.7497 109.686C81.0313 109.264 82.05 108.733 82.6368 108.154L82.6321 108.15Z" fill="#040000"/>
<path d="M77.7639 80.8094L77.5291 82.8884H65.4134C64.6949 75.0118 64.3333 66.6816 64.3333 57.8932C64.3333 52.4122 64.4742 46.8367 64.756 41.1667H78.2805C78.3744 45.1357 78.4214 49.0574 78.4214 52.9319C80.6144 51.642 83.2442 50.9947 86.3107 50.9947C89.3772 50.9947 92.2136 51.6467 94.5287 52.9555C96.8439 54.2644 98.6142 56.1449 99.8352 58.6019C101.056 61.0589 101.667 63.9884 101.667 67.3904C101.667 70.7924 101.056 73.7313 99.8352 76.2025C98.6142 78.6737 96.8439 80.5637 94.5287 81.8725C92.2136 83.1813 89.4711 83.8334 86.3107 83.8334C83.1503 83.8334 80.173 82.8269 77.7639 80.8094ZM86.569 71.7846C87.4002 70.8066 87.8134 69.3418 87.8134 67.3904C87.8134 65.439 87.4002 64.0215 86.569 63.0434C85.7378 62.0653 84.5872 61.5786 83.1174 61.5786C81.6475 61.5786 80.497 62.0653 79.6658 63.0434C78.8346 64.0215 78.4214 65.4673 78.4214 67.3904C78.4214 69.3135 78.8346 70.8066 79.6658 71.7846C80.497 72.7627 81.6475 73.2494 83.1174 73.2494C84.5872 73.2494 85.7378 72.7627 86.569 71.7846Z" fill="#040000"/>
<path d="M102.738 119.709C100.685 119.132 98.9928 118.467 97.6667 117.722L100.035 106.708C101.229 107.28 102.582 107.788 104.101 108.225C105.619 108.662 107.1 108.965 108.555 109.132C109.433 109.235 110.288 109.281 111.115 109.286C112.528 109.258 113.699 108.942 114.627 108.327C115.551 107.713 116.269 106.671 116.767 105.2C115.524 105.652 114.101 105.95 112.506 106.094C110.91 106.238 109.263 106.215 107.567 106.019C103.479 105.554 100.79 103.846 99.5049 100.905C98.22 97.9646 97.8404 94.0884 98.3709 89.2816C98.6315 86.9085 99.2763 83.3115 100.296 78.5L112.565 79.9006C112.172 82.3529 111.856 84.6423 111.623 86.7689C111.39 88.8954 111.289 90.5333 111.335 91.6781C111.376 92.8228 111.554 93.6464 111.865 94.1489C112.176 94.6515 112.629 95.0005 113.223 95.1959C113.667 95.3402 114.101 95.4379 114.527 95.4844C115.711 95.6194 116.941 95.4332 118.226 94.926C118.752 89.6167 119.168 84.8703 119.475 80.6917L132.333 82.1621C132.256 85.9313 131.981 89.9563 131.506 94.242C131.14 97.5737 130.678 100.892 130.129 104.2C129.082 110.603 126.773 115.163 123.188 117.876C119.607 120.589 115.011 121.622 109.405 120.984C107.014 120.71 104.791 120.286 102.738 119.705V119.709Z" fill="#040000"/>
</svg>
