<svg width="160" height="160" viewBox="0 0 160 160" fill="none" xmlns="http://www.w3.org/2000/svg">
<rect width="160" height="160" fill="#30B0C7"/>
<path d="M36.338 55.8216L80 30L123.662 55.8216V130H80H36.338V55.8216Z" fill="#FDFDFE"/>
<path d="M73.5642 112.595L73.2335 115.523H56.1691C55.1572 104.436 54.6479 92.6971 54.6479 80.319C54.6479 72.5993 54.8463 64.7465 55.2432 56.7606H74.2918C74.4241 62.3507 74.4902 67.8743 74.4902 73.3313C77.579 71.5145 81.2829 70.6028 85.6019 70.6028C89.9209 70.6028 93.9159 71.5212 97.1766 73.3646C100.437 75.208 102.931 77.8566 104.651 81.3172C106.37 84.7778 107.23 88.9038 107.23 93.6953C107.23 98.4869 106.37 102.626 104.651 106.107C102.931 109.587 100.437 112.249 97.1766 114.093C93.9159 115.936 90.0532 116.854 85.6019 116.854C81.1506 116.854 76.9573 115.437 73.5642 112.595ZM85.9657 99.8844C87.1364 98.5069 87.7184 96.4438 87.7184 93.6953C87.7184 90.9469 87.1364 88.9504 85.9657 87.5728C84.795 86.1953 83.1745 85.5098 81.1043 85.5098C79.0341 85.5098 77.4137 86.1953 76.243 87.5728C75.0723 88.9504 74.4902 90.9868 74.4902 93.6953C74.4902 96.4039 75.0723 98.5069 76.243 99.8844C77.4137 101.262 79.0341 101.947 81.1043 101.947C83.1745 101.947 84.795 101.262 85.9657 99.8844Z" fill="#040000"/>
</svg>
