<svg width="160" height="160" viewBox="0 0 160 160" fill="none" xmlns="http://www.w3.org/2000/svg">
<path d="M67.3774 124.139L66.8113 129.15H37.6038C35.8717 110.174 35 90.0807 35 68.8942C35 55.6811 35.3396 42.2402 36.0189 28.5714H68.6226C68.8491 38.1395 68.9623 47.5937 68.9623 56.934C74.2491 53.8244 80.5887 52.2639 87.9811 52.2639C95.3736 52.2639 102.211 53.8358 107.792 56.991C113.374 60.1462 117.642 64.6797 120.585 70.6028C123.528 76.5259 125 83.5881 125 91.7893C125 99.9905 123.528 107.075 120.585 113.033C117.642 118.99 113.374 123.546 107.792 126.701C102.211 129.857 95.6 131.429 87.9811 131.429C80.3623 131.429 73.1849 129.002 67.3774 124.139ZM88.6038 102.383C90.6075 100.025 91.6038 96.4936 91.6038 91.7893C91.6038 87.085 90.6075 83.6678 88.6038 81.3099C86.6 78.9521 83.8264 77.7788 80.283 77.7788C76.7396 77.7788 73.966 78.9521 71.9623 81.3099C69.9585 83.6678 68.9623 87.1533 68.9623 91.7893C68.9623 96.4253 69.9585 100.025 71.9623 102.383C73.966 104.74 76.7396 105.914 80.283 105.914C83.8264 105.914 86.6 104.74 88.6038 102.383Z" fill="#121212"/>
<path d="M67.3774 124.139L66.8113 129.15H37.6038C35.8717 110.174 35 90.0807 35 68.8942C35 55.6811 35.3396 42.2402 36.0189 28.5714H68.6226C68.8491 38.1395 68.9623 47.5937 68.9623 56.934C74.2491 53.8244 80.5887 52.2639 87.9811 52.2639C95.3736 52.2639 102.211 53.8358 107.792 56.991C113.374 60.1462 117.642 64.6797 120.585 70.6028C123.528 76.5259 125 83.5881 125 91.7893C125 99.9905 123.528 107.075 120.585 113.033C117.642 118.99 113.374 123.546 107.792 126.701C102.211 129.857 95.6 131.429 87.9811 131.429C80.3623 131.429 73.1849 129.002 67.3774 124.139ZM88.6038 102.383C90.6075 100.025 91.6038 96.4936 91.6038 91.7893C91.6038 87.085 90.6075 83.6678 88.6038 81.3099C86.6 78.9521 83.8264 77.7788 80.283 77.7788C76.7396 77.7788 73.966 78.9521 71.9623 81.3099C69.9585 83.6678 68.9623 87.1533 68.9623 91.7893C68.9623 96.4253 69.9585 100.025 71.9623 102.383C73.966 104.74 76.7396 105.914 80.283 105.914C83.8264 105.914 86.6 104.74 88.6038 102.383Z" fill="black" fill-opacity="0.2"/>
</svg>
