<svg width="36" height="36" viewBox="0 0 36 36" fill="none" xmlns="http://www.w3.org/2000/svg">
<g clip-path="url(#clip0_1982_4683)">
<path d="M27.9234 28.5102H7.87225V18.1224L27.657 19.4571L27.9234 28.5102Z" fill="#E5E8EB"/>
<path d="M20.6001 22.2588C25.1755 22.2588 28.8846 18.5497 28.8846 13.9743C28.8846 9.39889 25.1755 5.68979 20.6001 5.68979C16.0246 5.68979 12.3156 9.39889 12.3156 13.9743C12.3156 18.5497 16.0246 22.2588 20.6001 22.2588Z" fill="#E5E8EB"/>
<path d="M27.6255 28.5093C31.505 28.5093 34.65 25.3643 34.65 21.4848C34.65 17.6053 31.505 14.4603 27.6255 14.4603C23.7459 14.4603 20.601 17.6053 20.601 21.4848C20.601 25.3643 23.7459 28.5093 27.6255 28.5093Z" fill="#E5E8EB"/>
<path d="M7.87228 28.5093C11.4744 28.5093 14.3946 25.5892 14.3946 21.987C14.3946 18.3848 11.4744 15.4647 7.87228 15.4647C4.27011 15.4647 1.34998 18.3848 1.34998 21.987C1.34998 25.5892 4.27011 28.5093 7.87228 28.5093Z" fill="#E5E8EB"/>
<path d="M12.3155 20.5137C15.2641 20.5137 17.6543 18.1234 17.6543 15.1749C17.6543 12.2264 15.2641 9.83609 12.3155 9.83609C9.36701 9.83609 6.97675 12.2264 6.97675 15.1749C6.97675 18.1234 9.36701 20.5137 12.3155 20.5137Z" fill="#E5E8EB"/>
</g>
<defs>
<clipPath id="clip0_1982_4683">
<rect width="36" height="36" fill="white"/>
</clipPath>
</defs>
</svg>
