<svg width="24" height="24" viewBox="0 0 24 24" fill="none" xmlns="http://www.w3.org/2000/svg"><g clip-path="url(#clip0_2254_7849)"><path d="M9.921 11.0526L10.902 10.098C12.84 11.172 15.294 10.536 16.464 8.63397C16.7412 8.18337 16.9182 7.69977 17.0094 7.20897L16.9686 6.02997C16.9656 5.93397 16.8576 5.88057 16.779 5.93577C16.3398 6.24237 15.1284 6.93537 13.4094 6.70977L13.3938 6.71637C13.7244 6.00297 13.5462 5.18337 12.9402 4.81017C12.2796 4.40277 11.3682 4.68177 10.9056 5.43357C10.4424 6.18477 10.6026 7.12437 11.2638 7.53117C11.2896 7.54737 11.3178 7.55517 11.3448 7.56897L9.1398 8.48637L8.5752 9.03117C8.6346 8.98197 8.6874 8.92317 8.7486 8.87637L9.9222 11.0526H9.921Z" fill="#FFCCA8"/><path d="M15.8023 8.22714C15.9687 7.95716 16.0187 7.68601 15.914 7.62152C15.8094 7.55702 15.5897 7.7236 15.4233 7.99358C15.2569 8.26356 15.2069 8.53471 15.3116 8.5992C15.4162 8.6637 15.636 8.49712 15.8023 8.22714Z" fill="#333333"/><path d="M17.6761 6.03591C17.6461 6.86391 17.4121 7.32591 17.0101 7.22991V7.20591L16.9681 6.02991C16.9681 5.93391 16.8601 5.87991 16.7821 5.93391C16.3381 6.23991 15.1261 6.93591 13.4101 6.70791L13.3921 6.71391C13.7221 5.99991 13.5481 5.18391 12.9421 4.81191C12.2821 4.40391 11.3701 4.67991 10.9081 5.42991C10.4401 6.18591 10.6021 7.12191 11.2621 7.52991C11.2921 7.54791 11.3161 7.55391 11.3461 7.56591L9.13814 8.48391C9.13814 8.48391 8.68814 7.88991 8.40615 6.97791C7.53014 12.2819 3.41414 11.3159 1.88414 10.7639C1.71614 10.7039 1.72814 10.4579 1.90214 10.4099C2.63414 10.2059 3.90614 9.65391 4.80614 8.18391C5.94014 6.32991 7.77614 6.49791 8.30414 6.59391C8.05215 5.49591 8.10014 4.04991 9.30614 2.64591C11.1241 0.52791 13.7701 1.28991 15.4441 2.40591C17.1181 3.52791 17.7001 5.20191 17.6761 6.03591Z" fill="#333333"/><path d="M20.0004 17.5536C18.9264 17.6388 17.922 18.3 17.4204 19.1616H19.011L19.377 21.9978C19.38 22.0218 19.3704 22.0428 19.371 22.0662C20.7612 21.9324 22.0284 20.8452 22.2138 19.6122C22.4016 18.3636 21.4104 17.442 20.0004 17.5536Z" fill="#FFCCA8"/><path d="M13.567 17.2613C13.567 15.4763 14.9968 14.0279 16.7728 13.9919C16.2466 13.7717 15.6568 13.6445 15.0298 13.6445C13.7998 13.6445 12.7018 14.1221 11.98 14.8703L13.6546 17.9753C13.603 17.7443 13.567 17.5079 13.567 17.2613Z" fill="#FFD3D5"/><path d="M13.5669 17.2613C13.5669 17.5079 13.6029 17.7443 13.6545 17.9753C13.8861 19.0109 14.6007 19.8647 15.5571 20.2727C15.9513 20.4407 16.3845 20.5343 16.8399 20.5343C17.7045 20.5343 18.4887 20.1965 19.0743 19.6487C19.7121 19.0517 20.1129 18.2045 20.1129 17.2619C20.1129 15.4547 18.6477 13.9895 16.8399 13.9895C16.8171 13.9895 16.7955 13.9925 16.7733 13.9931C14.9967 14.0291 13.5675 15.4775 13.5675 17.2625L13.5669 17.2613Z" fill="#333333"/><path d="M16.8396 20.5336C16.3842 20.5336 15.951 20.44 15.5568 20.272C14.6004 19.864 13.8858 19.0102 13.6542 17.9746L11.9796 14.8696L9.921 11.0524L8.7474 8.87622C8.6862 8.92302 8.6334 8.98182 8.574 9.03102C5.1312 11.899 4.8252 19.3456 4.8252 21.856C4.8252 22.3204 5.2032 22.6948 5.6676 22.6948H18.7638C19.1118 22.6948 19.3746 22.4062 19.3698 22.0672C19.3698 22.0438 19.3788 22.0228 19.3758 21.9988L19.0728 19.6486C18.4878 20.1964 17.7036 20.5342 16.8384 20.5342L16.8396 20.5336Z" fill="#482EC5"/></g><defs><clipPath id="clip0_2254_7849"><rect width="24" height="24" fill="white"/></clipPath></defs></svg>