<svg width="24" height="24" viewBox="0 0 24 24" fill="none" xmlns="http://www.w3.org/2000/svg">
<g clip-path="url(#clip0_2244_6963)">
<path d="M12.3199 22.196C16.8673 22.0426 20.4107 17.6786 20.2342 12.4489C20.0577 7.21924 16.2282 3.10415 11.6807 3.25763C7.13323 3.4111 3.58986 7.77503 3.76636 13.0047C3.94287 18.2344 7.7724 22.3495 12.3199 22.196Z" fill="#FFCCA8"/>
<path d="M5.13804 16.2678C6.95959 16.2678 8.43624 14.8827 8.43624 13.1742C8.43624 11.4656 6.95959 10.0806 5.13804 10.0806C3.3165 10.0806 1.83984 11.4656 1.83984 13.1742C1.83984 14.8827 3.3165 16.2678 5.13804 16.2678Z" fill="#FFCCA8"/>
<path d="M18.8627 16.2678C20.6842 16.2678 22.1609 14.8827 22.1609 13.1742C22.1609 11.4656 20.6842 10.0806 18.8627 10.0806C17.0411 10.0806 15.5645 11.4656 15.5645 13.1742C15.5645 14.8827 17.0411 16.2678 18.8627 16.2678Z" fill="#FFCCA8"/>
<path d="M12.688 19.3403C12.9592 19.3403 13.1698 19.4777 13.1026 19.6205C12.9676 19.9085 12.6058 20.1125 12.0004 20.1125C11.395 20.1125 11.0332 19.9085 10.8982 19.6205C10.8316 19.4783 11.0416 19.3403 11.3128 19.3403H12.688Z" fill="#5C2F17"/>
<path d="M13.7675 7.41779C13.6577 7.34219 13.5167 7.41779 13.5569 7.54559L14.0423 9.08579C14.1203 9.33419 13.9031 9.57479 13.6481 9.52079C12.3923 9.25679 9.40548 8.56019 8.33568 7.71179C8.15088 7.56539 7.87788 7.63319 7.77168 7.84319C7.21428 8.94419 5.75448 11.595 4.14588 12.6366C3.86088 12.8214 3.49068 12.8052 3.23208 12.5844L2.23488 11.7078C2.23488 11.7078 1.69728 5.09039 6.48528 3.90779C6.48528 3.90779 9.06647 1.07939 13.4429 1.97699C17.8193 2.87459 20.1761 6.31619 20.5871 8.29859C20.9987 10.281 20.9105 10.785 20.9105 10.785L19.9109 12.4974C19.7933 12.699 19.5167 12.561 19.4369 12.426L13.7681 7.41899L13.7675 7.41779Z" fill="#D9D9D9"/>
<path d="M9.22523 15.0714C9.70937 15.0714 10.1018 14.6002 10.1018 14.019C10.1018 13.4377 9.70937 12.9666 9.22523 12.9666C8.7411 12.9666 8.34863 13.4377 8.34863 14.019C8.34863 14.6002 8.7411 15.0714 9.22523 15.0714Z" fill="black"/>
<path d="M14.775 15.0714C15.2592 15.0714 15.6516 14.6002 15.6516 14.019C15.6516 13.4377 15.2592 12.9666 14.775 12.9666C14.2909 12.9666 13.8984 13.4377 13.8984 14.019C13.8984 14.6002 14.2909 15.0714 14.775 15.0714Z" fill="black"/>
<path d="M9.0661 20.0628C9.0529 20.0628 9.0397 20.0616 9.0259 20.0586C8.9257 20.0364 8.8621 19.9374 8.8843 19.8372C9.2461 18.189 10.3045 17.9778 10.3495 17.97C10.4521 17.955 10.5475 18.0186 10.5655 18.1194C10.5835 18.2202 10.5175 18.3162 10.4173 18.3348C10.3807 18.3426 9.5521 18.525 9.2467 19.917C9.2275 20.004 9.1513 20.0628 9.0661 20.0628Z" fill="#FFB682"/>
<path d="M8.74479 16.827C7.23639 16.827 6.00879 15.6 6.00879 14.0916C6.00879 12.5832 7.23579 11.3556 8.74479 11.3556C10.2538 11.3556 11.4802 12.5832 11.4802 14.0916C11.4802 15.6 10.2532 16.827 8.74479 16.827ZM8.74479 11.7918C7.47639 11.7918 6.44499 12.8238 6.44499 14.0916C6.44499 15.3594 7.47639 16.3908 8.74479 16.3908C10.0132 16.3908 11.0446 15.3594 11.0446 14.0916C11.0446 12.8238 10.0132 11.7918 8.74479 11.7918Z" fill="white"/>
<path d="M15.2559 16.827C13.7475 16.827 12.5205 15.6 12.5205 14.0916C12.5205 12.5832 13.7475 11.3556 15.2559 11.3556C16.7643 11.3556 17.9919 12.5832 17.9919 14.0916C17.9919 15.6 16.7649 16.827 15.2559 16.827ZM15.2559 11.7918C13.9881 11.7918 12.9561 12.8238 12.9561 14.0916C12.9561 15.3594 13.9875 16.3908 15.2559 16.3908C16.5243 16.3908 17.5557 15.3594 17.5557 14.0916C17.5557 12.8238 16.5243 11.7918 15.2559 11.7918Z" fill="white"/>
<path d="M11.3955 14.2637L11.1279 13.9199C11.4333 13.6811 12.1917 13.3745 12.8745 13.9217L12.6021 14.2613C12.0213 13.7957 11.4213 14.2445 11.3955 14.2637Z" fill="white"/>
</g>
<defs>
<clipPath id="clip0_2244_6963">
<rect width="24" height="24" fill="white"/>
</clipPath>
</defs>
</svg>
