<svg width="16" height="16" viewBox="0 0 16 16" fill="none" xmlns="http://www.w3.org/2000/svg">
<g clip-path="url(#clip0_2016_6642)">
<path d="M1.3335 8C1.3335 11.1427 1.3335 12.714 2.3095 13.69C3.28683 14.6667 4.8575 14.6667 8.00016 14.6667C11.1428 14.6667 12.7142 14.6667 13.6902 13.69C14.6668 12.7147 14.6668 11.1427 14.6668 8V7M9.00016 1.33334H8.00016C4.8575 1.33334 3.28616 1.33334 2.3095 2.30934C1.66083 2.95867 1.44283 3.87134 1.37016 5.33334" stroke="#808991" stroke-linecap="round"/>
<path d="M11.1015 2.30333L11.5341 1.87067C11.8784 1.5265 12.3452 1.33319 12.832 1.33325C13.3188 1.33331 13.7856 1.52675 14.1298 1.871C14.474 2.21525 14.6673 2.68212 14.6672 3.1689C14.6671 3.65568 14.4737 4.1225 14.1295 4.46667L13.6961 4.89933C13.6961 4.89933 12.7775 4.84533 11.9668 4.034C11.1555 3.22333 11.1015 2.304 11.1015 2.304L7.12479 6.28C6.85546 6.54933 6.72079 6.684 6.60479 6.83267C6.4679 7.00822 6.35146 7.19667 6.25546 7.398C6.17479 7.568 6.11479 7.74867 5.99412 8.11L5.60812 9.26667M5.60812 9.26667L5.35879 10.0147C5.32947 10.1019 5.32506 10.1956 5.34607 10.2852C5.36707 10.3748 5.41266 10.4568 5.47771 10.5219C5.54275 10.587 5.62467 10.6327 5.71425 10.6538C5.80383 10.6749 5.89752 10.6706 5.98479 10.6413L6.73346 10.392M5.60812 9.26667L6.73346 10.392M13.6968 4.89867L11.7081 6.88667M9.72012 8.87533C9.45079 9.14467 9.31612 9.27933 9.16746 9.39533C8.99222 9.53191 8.80267 9.64904 8.60212 9.74467C8.43212 9.82533 8.25146 9.88533 7.89012 10.006L6.73346 10.392" stroke="#808991" stroke-linecap="round"/>
</g>
<defs>
<clipPath id="clip0_2016_6642">
<rect width="16" height="16" fill="white"/>
</clipPath>
</defs>
</svg>
