<svg width="24" height="24" viewBox="0 0 24 24" fill="none" xmlns="http://www.w3.org/2000/svg">
<g clip-path="url(#clip0_2244_6992)">
<path d="M21.8458 13.452C21.8458 12.6774 21.5242 11.973 21.0052 11.4402L19.813 12.378C19.492 12.6306 19.0384 12.6132 18.736 12.3384C18.0358 11.7024 16.5514 10.6488 14.1112 10.275C10.5232 9.72539 8.47181 6.92399 7.93241 5.45459C7.93241 5.45459 6.42281 10.3128 4.96901 12.1668C4.71101 12.4956 4.22441 12.531 3.90641 12.2598L2.97341 11.4636C2.46701 11.994 2.15381 12.6888 2.15381 13.4526C2.15381 14.8464 3.16601 16.0134 4.53641 16.3476C4.54661 16.35 4.55561 16.3548 4.56581 16.3572C5.11721 17.985 6.06401 19.3824 7.26701 20.4048C8.59121 21.531 10.2268 22.2012 11.9998 22.2012C13.7728 22.2012 15.4084 21.531 16.7326 20.4048C17.9356 19.3824 18.8824 17.985 19.4338 16.3572C19.5658 16.326 19.6912 16.281 19.8166 16.2348C21.0028 15.7998 21.8458 14.7228 21.8458 13.4532V13.452Z" fill="#FFCCA8"/>
<path d="M9.75683 13.8636C10.226 13.8636 10.6064 13.4072 10.6064 12.8442C10.6064 12.2812 10.226 11.8248 9.75683 11.8248C9.28761 11.8248 8.90723 12.2812 8.90723 12.8442C8.90723 13.4072 9.28761 13.8636 9.75683 13.8636Z" fill="black"/>
<path d="M14.2427 13.8636C14.7119 13.8636 15.0923 13.4072 15.0923 12.8442C15.0923 12.2812 14.7119 11.8248 14.2427 11.8248C13.7734 11.8248 13.3931 12.2812 13.3931 12.8442C13.3931 13.4072 13.7734 13.8636 14.2427 13.8636Z" fill="black"/>
<path d="M13.0577 17.8835C13.2479 17.8835 13.3835 18.0665 13.3331 18.2501C13.1723 18.8357 12.6365 19.2653 12.0005 19.2653C11.3645 19.2653 10.8281 18.8351 10.6679 18.2501C10.6175 18.0665 10.7525 17.8835 10.9433 17.8835H13.0577Z" fill="#5C2F17"/>
<path d="M4.56602 16.356C4.55582 16.3536 4.54682 16.3494 4.53662 16.3464L5.21582 19.7268C5.29502 20.1204 5.64062 20.4036 6.04202 20.4036H7.26722C6.06422 19.3812 5.11742 17.9838 4.56602 16.356Z" fill="#333333"/>
<path d="M16.733 20.4036H18.0092C18.3872 20.4036 18.7184 20.1522 18.8204 19.788L19.8164 16.2336C19.6916 16.2792 19.5662 16.3248 19.4336 16.356C18.8822 17.9838 17.9354 19.3812 16.7324 20.4036H16.733Z" fill="#333333"/>
<path d="M4.96918 12.1668C6.42298 10.3128 7.93258 5.45459 7.93258 5.45459C8.47138 6.92459 10.5234 9.72599 14.1114 10.275C16.5516 10.6488 18.036 11.7024 18.7362 12.3384C19.0386 12.6132 19.4922 12.6306 19.8132 12.378L21.0054 11.4402L21.0102 11.436C21.0102 11.436 21.1056 10.0158 20.7066 8.09519C20.3082 6.17459 18.0246 2.84039 13.785 1.97039C9.54538 1.10039 7.04458 3.84119 7.04458 3.84119C2.40598 4.98719 2.96818 11.4588 2.96818 11.4588L2.97358 11.4636L3.90658 12.2598C4.22458 12.531 4.71118 12.4962 4.96918 12.1668Z" fill="#333333"/>
</g>
<defs>
<clipPath id="clip0_2244_6992">
<rect width="24" height="24" fill="white"/>
</clipPath>
</defs>
</svg>
