<svg width="32" height="32" viewBox="0 0 32 32" fill="none" xmlns="http://www.w3.org/2000/svg">
<g clip-path="url(#clip0_2244_6631)">
<path d="M3.09748 26.2392C3.09748 26.2392 1.55188 9.2544 9.76628 5.6544C9.76628 5.6544 12.0247 2.3816 17.0639 2.9056C22.1039 3.4296 25.9527 7.3112 27.2415 10.8256C28.2015 13.4432 29.1519 18.9856 29.0015 25.408C28.9839 26.1536 28.5831 26.8368 27.9463 27.224C26.5559 28.0688 23.3335 29.152 15.9511 29.152C3.84228 29.152 3.09748 26.2392 3.09748 26.2392Z" fill="#333333"/>
<path d="M19.7694 13.9304C15.323 13.2696 12.431 10.3248 11.5054 9.2472C11.3798 9.1008 11.1422 9.1648 11.107 9.3552C10.891 10.5336 10.1254 13.5312 7.68775 15.7048C7.68775 15.7048 7.27895 16.0176 6.82055 16.632C6.14775 17.5352 5.88295 18.6856 6.07335 19.7952C6.90615 24.6464 10.9614 28.3288 15.8406 28.3288C20.427 28.3288 24.2854 25.076 25.4246 20.6568C25.991 17.3744 24.003 14.56 19.7694 13.9304Z" fill="#FFCCA8"/>
<path d="M12.8504 18.9088C13.4606 18.9088 13.9552 18.3153 13.9552 17.5832C13.9552 16.8511 13.4606 16.2576 12.8504 16.2576C12.2402 16.2576 11.7456 16.8511 11.7456 17.5832C11.7456 18.3153 12.2402 18.9088 12.8504 18.9088Z" fill="black"/>
<path d="M18.6815 18.9088C19.2916 18.9088 19.7863 18.3153 19.7863 17.5832C19.7863 16.8511 19.2916 16.2576 18.6815 16.2576C18.0713 16.2576 17.5767 16.8511 17.5767 17.5832C17.5767 18.3153 18.0713 18.9088 18.6815 18.9088Z" fill="black"/>
<path d="M17.1409 23.4064C17.3889 23.4064 17.5641 23.644 17.4985 23.8832C17.2897 24.644 16.5929 25.2032 15.7657 25.2032C14.9385 25.2032 14.2417 24.644 14.0329 23.8832C13.9673 23.6448 14.1433 23.4064 14.3905 23.4064H17.1409Z" fill="#5C2F17"/>
</g>
<defs>
<clipPath id="clip0_2244_6631">
<rect width="32" height="32" fill="white"/>
</clipPath>
</defs>
</svg>
