<svg width="24" height="24" viewBox="0 0 24 24" fill="none" xmlns="http://www.w3.org/2000/svg"><g clip-path="url(#clip0_2254_7912)"><path d="M8.11697 15.2537C11.543 15.2537 14.3204 12.4764 14.3204 9.05032C14.3204 5.62428 11.543 2.84692 8.11697 2.84692C4.69093 2.84692 1.91357 5.62428 1.91357 9.05032C1.91357 12.4764 4.69093 15.2537 8.11697 15.2537Z" fill="#C8D8F7"/><path d="M13.3324 21.1536C15.9811 21.1536 18.1282 19.0065 18.1282 16.3578C18.1282 13.7092 15.9811 11.562 13.3324 11.562C10.6838 11.562 8.53662 13.7092 8.53662 16.3578C8.53662 19.0065 10.6838 21.1536 13.3324 21.1536Z" fill="#D9E3F7"/><path d="M13.7716 11.5817C11.4112 11.3621 9.23922 12.9107 8.67822 15.2183C10.9024 15.0167 12.8578 13.6223 13.7716 11.5817Z" fill="#9DBCF7"/><path d="M19.1944 12.129C20.7919 12.129 22.087 10.8339 22.087 9.23635C22.087 7.63881 20.7919 6.34375 19.1944 6.34375C17.5968 6.34375 16.3018 7.63881 16.3018 9.23635C16.3018 10.8339 17.5968 12.129 19.1944 12.129Z" fill="#E6EBF7"/></g><defs><clipPath id="clip0_2254_7912"><rect width="24" height="24" fill="white"/></clipPath></defs></svg>