<svg width="32" height="32" viewBox="0 0 32 32" fill="none" xmlns="http://www.w3.org/2000/svg">
<g clip-path="url(#clip0_2254_8469)">
<path d="M16.0001 29.0424C22.6779 29.0424 28.0913 23.4245 28.0913 16.4944C28.0913 9.56433 22.6779 3.9464 16.0001 3.9464C9.32235 3.9464 3.90894 9.56433 3.90894 16.4944C3.90894 23.4245 9.32235 29.0424 16.0001 29.0424Z" fill="#FFCCA8"/>
<path d="M6.19771 21.9328C8.57253 21.9328 10.4977 20.1273 10.4977 17.9C10.4977 15.6727 8.57253 13.8672 6.19771 13.8672C3.82288 13.8672 1.89771 15.6727 1.89771 17.9C1.89771 20.1273 3.82288 21.9328 6.19771 21.9328Z" fill="#FFCCA8"/>
<path d="M25.8024 21.9328C28.1773 21.9328 30.1024 20.1273 30.1024 17.9C30.1024 15.6727 28.1773 13.8672 25.8024 13.8672C23.4276 13.8672 21.5024 15.6727 21.5024 17.9C21.5024 20.1273 23.4276 21.9328 25.8024 21.9328Z" fill="#FFCCA8"/>
<path d="M12.9826 18.7944C13.6139 18.7944 14.1258 18.1801 14.1258 17.4224C14.1258 16.6647 13.6139 16.0504 12.9826 16.0504C12.3512 16.0504 11.8394 16.6647 11.8394 17.4224C11.8394 18.1801 12.3512 18.7944 12.9826 18.7944Z" fill="black"/>
<path d="M19.0177 18.7944C19.6491 18.7944 20.1609 18.1801 20.1609 17.4224C20.1609 16.6647 19.6491 16.0504 19.0177 16.0504C18.3863 16.0504 17.8745 16.6647 17.8745 17.4224C17.8745 18.1801 18.3863 18.7944 19.0177 18.7944Z" fill="black"/>
<path d="M17.4216 21.4576C17.6784 21.4576 17.8608 21.704 17.7928 21.952C17.576 22.7392 16.8552 23.3168 16 23.3168C15.1448 23.3168 14.4232 22.7384 14.2072 21.952C14.1392 21.704 14.3216 21.4576 14.5784 21.4576H17.4216Z" fill="#5C2F17"/>
<path d="M15.6193 7.392C15.5769 7.9512 16.1297 8.3576 16.6521 8.1544C17.8689 7.6808 19.4697 6.7624 19.4561 5.2096C19.4345 2.7072 16.3401 2.8896 15.6065 3.028C14.5777 3.2224 13.3817 3.9256 12.8433 4.2688C12.7369 4.3368 12.7617 4.4976 12.8841 4.528C13.7049 4.7296 15.7681 5.4336 15.6185 7.3928L15.6193 7.392Z" fill="#333333"/>
</g>
<defs>
<clipPath id="clip0_2254_8469">
<rect width="32" height="32" fill="white"/>
</clipPath>
</defs>
</svg>
