<svg width="24" height="24" viewBox="0 0 24 24" fill="none" xmlns="http://www.w3.org/2000/svg"><g clip-path="url(#clip0_2254_7943)"><path d="M10.566 20.7947L13.35 20.7191L22.5 13.9415L21.8634 5.2373C21.8346 4.8461 21.5094 4.5437 21.117 4.5437H2.883C2.4912 4.5437 2.1654 4.8461 2.1366 5.2373L1.5 13.9415" fill="#D0D5DA"/><path d="M2.13744 5.1936L2.00244 7.0398H21.9986L21.8636 5.1936C21.8348 4.8024 21.5096 4.5 21.1172 4.5H2.88324C2.49144 4.5 2.16624 4.8024 2.13744 5.1936Z" fill="#AFB7C0"/><path d="M11.9998 7.0835H7.83399C7.83399 7.0835 7.82739 10.3823 8.48379 13.6739C9.19299 17.2301 10.57 20.7995 10.57 20.7995H13.4296C13.4296 20.7995 14.785 17.2475 15.4978 13.6739C16.1506 10.4027 16.1656 7.0835 16.1656 7.0835H11.9998Z" fill="#E1E4E7"/><path d="M13.4297 20.7997C14.8733 16.2973 19.3061 14.2567 22.4999 13.9417L13.4297 20.7997Z" fill="#AFB7C0"/><path d="M10.5702 20.7997C9.1266 16.2973 4.6938 14.2567 1.5 13.9417L10.5702 20.7997Z" fill="#AFB7C0"/></g><defs><clipPath id="clip0_2254_7943"><rect width="24" height="24" fill="white"/></clipPath></defs></svg>