<svg width="24" height="24" viewBox="0 0 24 24" fill="none" xmlns="http://www.w3.org/2000/svg">
<g clip-path="url(#clip0_2254_7817)">
<path d="M21.5513 21.9803C21.4253 20.9291 20.8901 19.3265 19.8599 17.7209C19.9007 18.1919 19.8359 18.6785 19.6241 19.1387C19.2575 19.9361 18.5621 20.4689 17.7749 20.6765L17.7779 20.6783C17.8481 20.6717 17.9159 20.6573 17.9873 20.6573C19.2017 20.6573 20.5403 21.6419 20.5403 22.8557H20.7713C21.2423 22.8557 21.6071 22.4483 21.5513 21.9803Z" fill="#482EC5"/>
<path d="M13.4843 18.3096C13.7483 18.2304 14.0303 18.2742 14.2727 18.4032C14.3027 18.4188 14.3339 18.4308 14.3621 18.4494L14.8991 18.7998L15.3113 19.0686L14.8979 18.7974L14.3639 18.4494C14.3339 18.4314 14.3039 18.4194 14.2739 18.4014C14.1899 17.8674 14.2499 17.3034 14.4959 16.7814C14.8859 15.9234 15.6593 15.366 16.5173 15.1974V15.195L16.5209 15.1872C16.5365 15.1842 16.5527 15.1842 16.5689 15.1818C16.6139 15.174 16.6601 15.1716 16.7057 15.1656C16.8257 15.15 16.9457 15.1416 17.0675 15.1416C17.1239 15.1416 17.1803 15.1446 17.2373 15.1476C17.3555 15.1548 17.4731 15.171 17.5913 15.1938C17.6429 15.204 17.6945 15.2112 17.7461 15.2238C17.7509 15.225 17.7563 15.2274 17.7611 15.2292C16.8473 14.3982 15.7589 13.6596 14.4629 13.1232C14.2847 13.6554 13.7399 13.989 13.1735 13.8792C12.5567 13.7598 12.1535 13.1634 12.2729 12.5466L12.2885 12.4656C10.9409 12.228 9.7325 12.3672 8.6567 12.7416L11.1119 13.7478C11.5133 13.9122 11.6951 14.379 11.5115 14.7714L10.3601 17.2344C10.2173 17.5404 9.8987 17.6982 9.5831 17.6604L8.6639 18.6594L5.5181 16.3116L6.5255 14.925C6.5729 14.8596 6.6263 14.7996 6.6833 14.7444L7.3379 13.3446C4.6925 14.8704 3.0557 17.751 2.3615 19.1328C1.7387 20.3724 1.8587 21.8388 2.9999 22.6278C4.1411 23.4168 5.7059 23.1306 6.4949 21.9894L7.9073 19.8774L7.0631 22.8546H8.3171C8.3171 22.8546 9.7487 19.4292 13.4855 18.3084L13.4843 18.3096ZM10.3493 17.2578L11.5031 14.7906C11.5517 14.6868 11.6747 14.6424 11.7785 14.6904L12.2681 14.9196C12.3719 14.9682 12.4163 15.0912 12.3683 15.195L12.3317 15.2736C12.6695 15.513 12.8753 15.8868 12.8885 16.2876C12.8909 16.3578 12.9281 16.422 12.9917 16.452L13.3361 16.6128C13.6037 16.7382 13.7045 17.076 13.5299 17.331C13.3931 17.5314 13.1195 17.586 12.8999 17.4834L12.5789 17.3334C12.5153 17.3034 12.4421 17.316 12.3869 17.3598C12.0707 17.607 11.6519 17.6886 11.2517 17.583L11.2151 17.6616C11.1665 17.7654 11.0435 17.8098 10.9397 17.7618L10.4501 17.5326C10.3463 17.484 10.3019 17.361 10.3499 17.2572L10.3493 17.2578Z" fill="#482EC5"/>
<path d="M19.2924 8.08971C19.1802 8.04711 19.0242 8.17251 18.8574 8.22831C18.7938 8.24211 18.7308 8.24811 18.6786 8.24211C16.308 7.94451 13.3128 4.40991 13.3128 4.40991L9.9072 7.00011C9.8358 7.05471 9.7356 7.01691 9.708 6.93171C9.525 6.36411 9.2466 6.25011 9.1332 6.22731C8.67 6.45411 8.3178 6.86751 8.2146 7.39191C8.0346 8.30391 8.6826 9.19791 9.6546 9.39591C9.9726 10.7819 10.9386 11.9639 12.2706 12.5399V12.5459C12.1566 13.1639 12.5586 13.7579 13.1706 13.8779C13.7406 13.9919 14.2866 13.6559 14.4606 13.1219C14.4786 13.0739 14.4966 13.0319 14.5086 12.9779L14.5266 12.8819C15.8406 12.7439 17.0166 12.0359 17.7546 10.9619C18.7326 11.1479 19.6626 10.5599 19.8426 9.64191C19.9584 9.05451 19.7262 8.48031 19.2924 8.08971Z" fill="#FFCCA8"/>
<path d="M9.70779 6.9318C9.73539 7.017 9.83559 7.0548 9.90699 7.0002L13.3126 4.41C13.3126 4.41 16.3078 7.9446 18.6784 8.2422C18.7306 8.2488 18.7936 8.2422 18.8572 8.2284C19.024 8.1726 19.18 8.0472 19.2922 8.0898C19.2964 8.0916 19.3018 8.0898 19.306 8.0916C19.9672 4.9248 17.6086 1.8054 14.2144 1.785C12.0946 1.7724 10.1368 3.111 9.38079 5.0916C9.24459 5.4486 9.14919 5.808 9.09159 6.165C9.08679 6.1932 9.10479 6.2226 9.13239 6.228C9.24519 6.2508 9.52359 6.3648 9.70719 6.9324L9.70779 6.9318Z" fill="#333333"/>
<path d="M13.6623 9.10959C13.7228 8.79727 13.5608 8.50325 13.3005 8.45288C13.0402 8.4025 12.7803 8.61485 12.7198 8.92717C12.6594 9.23949 12.8213 9.53351 13.0816 9.58389C13.3419 9.63426 13.6019 9.42191 13.6623 9.10959Z" fill="black"/>
<path d="M16.1506 9.59128C16.211 9.27896 16.0491 8.98494 15.7888 8.93457C15.5285 8.88419 15.2685 9.09654 15.2081 9.40886C15.1476 9.72118 15.3096 10.0152 15.5699 10.0656C15.8302 10.1159 16.0901 9.9036 16.1506 9.59128Z" fill="black"/>
<path d="M14.466 11.3226C14.5554 11.34 14.6022 11.4384 14.562 11.52C14.4336 11.7792 14.1438 11.9322 13.8456 11.8746C13.5474 11.817 13.3356 11.5668 13.3134 11.2782C13.3062 11.1876 13.3866 11.1138 13.476 11.1312L14.466 11.3226Z" fill="#5C2F17"/>
<path d="M12.3872 17.3604C12.4424 17.3172 12.5156 17.3046 12.5792 17.334L12.9002 17.484C13.1198 17.5866 13.3934 17.532 13.5302 17.3316C13.7042 17.0766 13.604 16.7382 13.3364 16.6134L12.992 16.4526C12.9284 16.4226 12.8912 16.3584 12.8888 16.2882C12.8756 15.8868 12.6698 15.513 12.332 15.2742L11.252 17.5836C11.6522 17.6892 12.071 17.6076 12.3872 17.3604Z" fill="#FFE3A0"/>
<path d="M10.4495 17.5332L10.9391 17.7624C11.0429 17.811 11.1659 17.766 11.2145 17.6622L11.2511 17.5836L12.3311 15.2742L12.3677 15.1956C12.4163 15.0918 12.3713 14.9688 12.2675 14.9202L11.7779 14.691C11.6741 14.6424 11.5511 14.6874 11.5025 14.7912L10.3487 17.2584C10.3001 17.3622 10.3451 17.4852 10.4489 17.5338L10.4495 17.5332Z" fill="#93C9FF"/>
<path d="M8.11133 14.4373L9.28553 14.8585C10.3121 15.2269 10.6307 16.5229 9.89213 17.3257L9.58253 17.6617C9.89813 17.6989 10.2167 17.5411 10.3595 17.2357L11.5109 14.7727C11.6945 14.3797 11.5127 13.9135 11.1113 13.7491L8.65613 12.7429L8.45513 12.6607C8.08013 12.5071 7.65113 12.6745 7.47953 13.0417L7.33673 13.3471L6.68213 14.7469C7.05593 14.3851 7.60853 14.2579 8.11073 14.4385L8.11133 14.4373Z" fill="#C8E1FF"/>
<path d="M9.28558 14.8586L8.11138 14.4374C7.60918 14.2574 7.05658 14.384 6.68278 14.7458C6.62578 14.801 6.57298 14.8604 6.52498 14.9264L5.51758 16.313L8.66338 18.6608L9.58258 17.6618L9.89218 17.3258C10.6308 16.523 10.3122 15.227 9.28558 14.8586Z" fill="#FFCCA8"/>
<path d="M17.5905 15.195C17.4723 15.1722 17.3547 15.156 17.2365 15.1488C17.1801 15.1452 17.1231 15.1428 17.0667 15.1428C16.9449 15.1428 16.8249 15.1512 16.7049 15.1668C16.6593 15.1728 16.6131 15.1746 16.5681 15.183C16.5525 15.186 16.5357 15.1854 16.5201 15.1884L16.5171 15.1962V15.1986L16.3749 15.6018L15.8835 16.9986C15.8967 16.9968 15.9093 16.9998 15.9225 16.9986C16.0767 16.983 16.2297 16.9992 16.3677 17.0712C16.8189 17.3028 16.9539 17.9352 16.6887 18.507C16.6785 18.5292 16.6719 18.552 16.6605 18.5736C16.4793 18.9252 16.1841 19.1592 15.8763 19.2468C15.8007 19.2684 15.7245 19.2882 15.6489 19.2906L17.7741 20.6772C18.5613 20.4696 19.2567 19.9368 19.6233 19.1394C19.8351 18.6792 19.8999 18.1926 19.8591 17.7216C19.7751 16.743 19.1943 15.8352 18.2385 15.3954C18.0819 15.3234 17.9211 15.2724 17.7597 15.231C17.7549 15.2298 17.7495 15.2268 17.7447 15.2256C17.6931 15.2124 17.6415 15.2052 17.5899 15.1956L17.5905 15.195Z" fill="#333333"/>
<path d="M16.6621 18.5701C16.6729 18.5491 16.6795 18.5275 16.6891 18.5059C16.9537 17.9341 16.8193 17.3017 16.3681 17.0701C16.2307 16.9987 16.0771 16.9825 15.9229 16.9975C15.9091 16.9987 15.8958 16.9957 15.882 16.9975L16.3758 15.6007L16.5181 15.1975H16.5174C15.6594 15.3661 14.886 15.9235 14.4961 16.7815C14.25 17.3035 14.1901 17.8675 14.2741 18.4015C14.3041 18.4195 14.3341 18.4315 14.3641 18.4495L14.8981 18.7975L15.3114 19.0687L15.6481 19.2883H15.6493C15.7249 19.2865 15.8011 19.2667 15.8767 19.2451C16.1845 19.1563 16.4791 18.9205 16.6621 18.5695V18.5701Z" fill="#FFCCA8"/>
<path d="M17.7773 20.6785L17.7743 20.6767L15.6491 19.2901H15.6479L15.3113 19.0699L14.8991 18.8011L14.3621 18.4507C14.3339 18.4321 14.3021 18.4201 14.2727 18.4045C14.0303 18.2755 13.7483 18.2311 13.4843 18.3109C9.74812 19.4317 8.31592 22.8571 8.31592 22.8571H15.7883C15.7883 21.7147 16.6631 20.7865 17.7773 20.6797V20.6785Z" fill="#7664C5"/>
<path d="M17.9875 20.6575C17.9155 20.6575 17.8477 20.6719 17.7781 20.6785C16.6639 20.7853 15.7891 21.7135 15.7891 22.8559H20.5405C20.5405 21.6415 19.2019 20.6575 17.9875 20.6575Z" fill="#FFCCA8"/>
</g>
<defs>
<clipPath id="clip0_2254_7817">
<rect width="24" height="24" fill="white"/>
</clipPath>
</defs>
</svg>