<svg width="16" height="16" viewBox="0 0 16 16" fill="none" xmlns="http://www.w3.org/2000/svg">
<path d="M14.5894 3.22166H2M13.3549 5.07305L13.0143 10.1829C12.8832 12.1483 12.818 13.131 12.1775 13.7302C11.5369 14.3293 10.5512 14.33 8.58132 14.33H8.00813C6.03825 14.33 5.05257 14.33 4.41199 13.7302C3.77141 13.131 3.7055 12.1483 3.57516 10.1829L3.23451 5.07305" stroke="#808991" stroke-linecap="round"/>
<path d="M4.22168 3.22167H4.30314C4.60117 3.21405 4.88997 3.11667 5.13177 2.94226C5.37356 2.76786 5.55709 2.52454 5.65836 2.24413L5.68354 2.16786L5.75537 1.95235C5.81684 1.76796 5.84794 1.67613 5.88867 1.59763C5.9688 1.44388 6.08381 1.31103 6.22449 1.20969C6.36518 1.10836 6.52762 1.04137 6.69884 1.01407C6.78548 1 6.8825 1 7.07652 1H9.51295C9.70698 1 9.80399 1 9.89063 1.01407C10.0618 1.04137 10.2243 1.10836 10.365 1.20969C10.5057 1.31103 10.6207 1.44388 10.7008 1.59763C10.7415 1.67613 10.7726 1.76796 10.8341 1.95235L10.9059 2.16786C10.9998 2.47983 11.1939 2.75216 11.4582 2.94267C11.7224 3.13318 12.0421 3.23124 12.3678 3.22167" stroke="#808991"/>
</svg>
