<svg width="24" height="24" viewBox="0 0 24 24" fill="none" xmlns="http://www.w3.org/2000/svg"><path d="M3.81786 17.8704C2.87286 15.3546 3.77946 10.2108 4.25946 7.92596C4.37406 7.38176 5.01186 7.14116 5.45706 7.47416C7.32426 8.87096 11.3953 12.1302 12.3475 14.6658C13.2325 17.0214 12.0403 19.6482 9.68466 20.5326C7.32906 21.4176 4.70226 20.226 3.81786 17.8704Z" fill="#FFEEC7"/><path d="M13.2328 9.54896C11.4118 8.96936 8.93799 6.19916 7.87299 4.92536C7.61919 4.62176 7.76619 4.15976 8.14779 4.05776C9.74979 3.62996 13.3618 2.79056 15.1972 3.37436C16.9024 3.91676 17.8444 5.73896 17.302 7.44416C16.7596 9.14936 14.938 10.0914 13.2328 9.54896Z" fill="#FFF0CD"/><path d="M16.1267 17.6741C15.0719 16.5677 14.4011 13.6727 14.1437 12.3701C14.0825 12.0599 14.3627 11.7917 14.6705 11.8667C15.9587 12.1823 18.8159 12.9821 19.8791 14.0975C20.8667 15.1337 20.8277 16.7741 19.7915 17.7617C18.7553 18.7493 17.1143 18.7103 16.1267 17.6741Z" fill="#FFEDC2"/></svg>