<svg width="24" height="24" viewBox="0 0 24 24" fill="none" xmlns="http://www.w3.org/2000/svg">
<g clip-path="url(#clip0_2244_6935)">
<path d="M20.0696 12.6907C19.8962 7.54686 16.1294 3.49926 11.6564 3.65046C7.18336 3.80166 3.69796 8.09346 3.87196 13.2373C4.00036 17.0449 6.09916 20.0227 8.99416 21.2527C9.16396 21.3247 9.31036 21.4345 9.43876 21.5671C9.84256 21.9865 10.8242 22.3501 11.9708 22.3501C13.0976 22.3501 14.0624 21.9967 14.4782 21.5887C14.5982 21.4711 14.7374 21.3799 14.8934 21.3181C18.035 20.0641 20.2076 16.7773 20.0696 12.6907Z" fill="#FFCCA8"/>
<path d="M9.24159 15.2701C9.71777 15.2701 10.1038 14.8067 10.1038 14.2351C10.1038 13.6635 9.71777 13.2001 9.24159 13.2001C8.76541 13.2001 8.37939 13.6635 8.37939 14.2351C8.37939 14.8067 8.76541 15.2701 9.24159 15.2701Z" fill="black"/>
<path d="M14.7011 15.2701C15.1772 15.2701 15.5633 14.8067 15.5633 14.2351C15.5633 13.6635 15.1772 13.2001 14.7011 13.2001C14.2249 13.2001 13.8389 13.6635 13.8389 14.2351C13.8389 14.8067 14.2249 15.2701 14.7011 15.2701Z" fill="black"/>
<path d="M12.1011 6.12122C14.1464 6.12122 15.8043 5.12031 15.8043 3.88562C15.8043 2.65094 14.1464 1.65002 12.1011 1.65002C10.0559 1.65002 8.39795 2.65094 8.39795 3.88562C8.39795 5.12031 10.0559 6.12122 12.1011 6.12122Z" fill="#BDBDBD"/>
<path d="M5.67737 18.6241C5.67737 18.6241 1.39517 17.1289 1.22357 13.8175C1.05257 10.5061 3.45017 8.87828 3.45017 8.87828C3.45017 8.87828 3.13637 6.48008 6.16217 4.51028C7.55477 3.60368 8.84537 3.50108 9.83177 3.65528C11.8316 3.96668 12.842 6.31688 11.5454 7.87088C11.099 8.40608 10.373 8.90888 9.21857 9.26348C4.47317 10.7227 3.01637 13.7389 5.67737 18.6241Z" fill="#D9D9D9"/>
<path d="M18.4372 18.4848C18.352 18.5292 22.5712 17.127 22.7734 13.7994C22.9744 10.4892 20.5468 8.86021 20.5468 8.86021C20.5468 8.86021 20.8606 6.46201 17.8348 4.49221C16.4422 3.58561 15.1516 3.48301 14.1652 3.63721C12.1654 3.94861 11.155 6.29881 12.4516 7.85281C12.898 8.38801 13.624 8.89081 14.7784 9.24541C19.5238 10.7046 21.0982 13.5996 18.4372 18.4848Z" fill="#D9D9D9"/>
<path d="M12.6468 19.4689C12.9138 19.4689 13.1208 19.6045 13.0548 19.7443C12.9216 20.0275 12.5658 20.2279 11.9706 20.2279C11.3754 20.2279 11.0196 20.0275 10.8864 19.7443C10.8204 19.6045 11.0274 19.4689 11.2944 19.4689H12.6468Z" fill="#5C2F17"/>
<path d="M9.08542 20.1804C9.07222 20.1804 9.05902 20.1792 9.04582 20.1762C8.94742 20.1546 8.88502 20.0568 8.90662 19.9584C9.26242 18.3372 10.3034 18.1296 10.3478 18.1212C10.448 18.1044 10.5422 18.1692 10.5602 18.2682C10.5782 18.3672 10.5128 18.462 10.4144 18.4806C10.3742 18.4896 9.56302 18.672 9.26362 20.037C9.24502 20.1228 9.16942 20.1804 9.08542 20.1804Z" fill="#FFB682"/>
<path d="M8.76853 16.9968C7.28473 16.9968 6.07812 15.7896 6.07812 14.3064C6.07812 12.8232 7.28533 11.616 8.76853 11.616C10.2517 11.616 11.4595 12.8232 11.4595 14.3064C11.4595 15.7896 10.2523 16.9968 8.76853 16.9968ZM8.76853 12.0444C7.52113 12.0444 6.50652 13.059 6.50652 14.3064C6.50652 15.5538 7.52113 16.5684 8.76853 16.5684C10.0159 16.5684 11.0305 15.5538 11.0305 14.3064C11.0305 13.059 10.0159 12.0444 8.76853 12.0444Z" fill="white"/>
<path d="M15.1728 16.9968C13.689 16.9968 12.4824 15.7896 12.4824 14.3064C12.4824 12.8232 13.6896 11.616 15.1728 11.616C16.656 11.616 17.8632 12.8232 17.8632 14.3064C17.8632 15.7896 16.656 16.9968 15.1728 16.9968ZM15.1728 12.0444C13.9254 12.0444 12.9108 13.059 12.9108 14.3064C12.9108 15.5538 13.9254 16.5684 15.1728 16.5684C16.4202 16.5684 17.4348 15.5538 17.4348 14.3064C17.4348 13.059 16.4202 12.0444 15.1728 12.0444Z" fill="white"/>
<path d="M11.3767 14.475L11.1133 14.1378C11.4139 13.9026 12.1597 13.6014 12.8311 14.139L12.5629 14.4744C11.9845 14.01 11.4019 14.457 11.3773 14.4756L11.3767 14.475Z" fill="white"/>
</g>
<defs>
<clipPath id="clip0_2244_6935">
<rect width="24" height="24" fill="white"/>
</clipPath>
</defs>
</svg>
