<svg width="24" height="24" viewBox="0 0 24 24" fill="none" xmlns="http://www.w3.org/2000/svg"><g clip-path="url(#clip0_2254_7869)"><path d="M13.6081 3.1932V2.0736C13.6081 1.3068 13.0843 0.596404 12.3277 0.473404C11.3635 0.316804 10.5301 1.0566 10.5301 1.9914V3.1938C10.5301 3.4164 10.3963 3.6084 10.1977 3.7092C8.85606 4.392 7.93506 5.7804 7.93506 7.389H16.2031C16.2031 5.7804 15.2821 4.3914 13.9405 3.7092C13.7419 3.6084 13.6081 3.4158 13.6081 3.1932Z" fill="#FFD06C"/><path d="M16.3748 6.66187H7.7636C7.40174 6.66187 7.1084 6.95521 7.1084 7.31707V9.02707C7.1084 9.38892 7.40174 9.68226 7.7636 9.68226H16.3748C16.7367 9.68226 17.03 9.38892 17.03 9.02707V7.31707C17.03 6.95521 16.7367 6.66187 16.3748 6.66187Z" fill="#93C9FF"/><path d="M15.8598 23.5475H8.1402C6.8598 23.5475 5.805 22.5425 5.7432 21.2633L5.3046 12.1979C5.2386 10.8287 6.3306 9.68213 7.7016 9.68213H16.299C17.67 9.68213 18.7626 10.8287 18.696 12.1979L18.2574 21.2633C18.1956 22.5419 17.1402 23.5475 15.8598 23.5475Z" fill="#C8E1FF"/></g><defs><clipPath id="clip0_2254_7869"><rect width="24" height="24" fill="white"/></clipPath></defs></svg>