<svg width="24" height="24" viewBox="0 0 24 24" fill="none" xmlns="http://www.w3.org/2000/svg">
<g clip-path="url(#clip0_2244_6471)">
<path d="M12 21.9C16.4351 21.9 20.0304 18.3047 20.0304 13.8696C20.0304 9.43454 16.4351 5.8392 12 5.8392C7.56494 5.8392 3.9696 9.43454 3.9696 13.8696C3.9696 18.3047 7.56494 21.9 12 21.9Z" fill="#FFCCA8"/>
<path d="M4.67101 17.1096C6.44649 17.1096 7.88581 15.7597 7.88581 14.0946C7.88581 12.4295 6.44649 11.0796 4.67101 11.0796C2.89552 11.0796 1.45621 12.4295 1.45621 14.0946C1.45621 15.7597 2.89552 17.1096 4.67101 17.1096Z" fill="#FFCCA8"/>
<path d="M19.329 17.1096C21.1045 17.1096 22.5438 15.7597 22.5438 14.0946C22.5438 12.4295 21.1045 11.0796 19.329 11.0796C17.5535 11.0796 16.1142 12.4295 16.1142 14.0946C16.1142 15.7597 17.5535 17.1096 19.329 17.1096Z" fill="#FFCCA8"/>
<path d="M9.744 14.5062C10.2159 14.5062 10.5984 14.0471 10.5984 13.4808C10.5984 12.9145 10.2159 12.4554 9.744 12.4554C9.27213 12.4554 8.8896 12.9145 8.8896 13.4808C8.8896 14.0471 9.27213 14.5062 9.744 14.5062Z" fill="black"/>
<path d="M14.256 14.5062C14.7279 14.5062 15.1104 14.0471 15.1104 13.4808C15.1104 12.9145 14.7279 12.4554 14.256 12.4554C13.7841 12.4554 13.4016 12.9145 13.4016 13.4808C13.4016 14.0471 13.7841 14.5062 14.256 14.5062Z" fill="black"/>
<path d="M13.0632 17.5242C13.2552 17.5242 13.392 17.709 13.341 17.8938C13.179 18.4824 12.6402 18.9144 12.0006 18.9144C11.361 18.9144 10.8216 18.4824 10.6602 17.8938C10.6092 17.7084 10.7454 17.5242 10.938 17.5242H13.0644H13.0632Z" fill="#5C2F17"/>
<path d="M21.2544 11.5668C21.3354 6.05341 16.5918 1.55161 10.9746 2.15461C6.654 2.61841 3.1944 6.13021 2.787 10.4562C2.7456 10.8966 2.7348 11.331 2.7534 11.7582C2.7534 11.7582 5.7588 11.9382 8.4456 8.56981C8.4456 8.56981 10.2258 10.4886 12.0006 10.4886C13.7754 10.4886 15.396 8.56981 15.396 8.56981C15.396 8.56981 16.7676 11.5614 21.2556 11.5668H21.2544Z" fill="#333333"/>
</g>
<defs>
<clipPath id="clip0_2244_6471">
<rect width="24" height="24" fill="white"/>
</clipPath>
</defs>
</svg>
