<svg width="24" height="24" viewBox="0 0 24 24" fill="none" xmlns="http://www.w3.org/2000/svg"><path d="M16.3433 22.5H7.84071C6.45951 22.5 5.27811 21.5076 5.03931 20.1468L1.89351 2.208C1.82871 1.8384 2.11311 1.5 2.48811 1.5H21.5111C21.8861 1.5 22.1705 1.8384 22.1057 2.208L19.1441 20.1468C18.9053 21.5076 17.7245 22.5 16.3433 22.5Z" fill="#C8E1FF"/><path d="M11.9797 6.03128C9.11232 7.21148 6.86532 7.16948 4.57812 6.47048L6.91872 19.8175C6.99672 20.2663 7.38492 20.5921 7.84092 20.5921H16.3429C16.7989 20.5921 17.1871 20.2669 17.2621 19.8367L19.6093 5.62148C17.1469 4.89728 14.7241 4.93268 11.9797 6.03128Z" fill="white"/></svg>