<svg width="24" height="24" viewBox="0 0 24 24" fill="none" xmlns="http://www.w3.org/2000/svg">
<g clip-path="url(#clip0_2244_6911)">
<path d="M12.0001 22.2006C16.409 22.2006 19.9831 18.0905 19.9831 13.0206C19.9831 7.9506 16.409 3.84058 12.0001 3.84058C7.5912 3.84058 4.01709 7.9506 4.01709 13.0206C4.01709 18.0905 7.5912 22.2006 12.0001 22.2006Z" fill="#FFCCA8"/>
<path d="M5.35136 16.452C7.11624 16.452 8.54696 15.1099 8.54696 13.4544C8.54696 11.7989 7.11624 10.4568 5.35136 10.4568C3.58648 10.4568 2.15576 11.7989 2.15576 13.4544C2.15576 15.1099 3.58648 16.452 5.35136 16.452Z" fill="#FFCCA8"/>
<path d="M18.6487 16.452C20.4136 16.452 21.8443 15.1099 21.8443 13.4544C21.8443 11.7989 20.4136 10.4568 18.6487 10.4568C16.8838 10.4568 15.4531 11.7989 15.4531 13.4544C15.4531 15.1099 16.8838 16.452 18.6487 16.452Z" fill="#FFCCA8"/>
<path d="M9.75731 13.8636C10.2265 13.8636 10.6069 13.4072 10.6069 12.8442C10.6069 12.2812 10.2265 11.8248 9.75731 11.8248C9.28809 11.8248 8.90771 12.2812 8.90771 12.8442C8.90771 13.4072 9.28809 13.8636 9.75731 13.8636Z" fill="black"/>
<path d="M14.2432 13.8636C14.7124 13.8636 15.0928 13.4072 15.0928 12.8442C15.0928 12.2812 14.7124 11.8248 14.2432 11.8248C13.7739 11.8248 13.3936 12.2812 13.3936 12.8442C13.3936 13.4072 13.7739 13.8636 14.2432 13.8636Z" fill="black"/>
<path d="M13.0579 17.8842C13.2481 17.8842 13.3837 18.0672 13.3333 18.2508C13.1725 18.8364 12.6367 19.266 12.0001 19.266C11.3635 19.266 10.8277 18.8358 10.6669 18.2508C10.6165 18.0672 10.7515 17.8842 10.9423 17.8842H13.0579Z" fill="#5C2F17"/>
<path d="M2.96769 11.4588C2.96769 11.4588 2.40549 4.98658 7.04469 3.84058C7.04469 3.84058 9.54549 1.09978 13.7857 1.96978C18.0259 2.83978 20.3095 6.17398 20.7079 8.09458C21.1063 10.0152 21.0115 11.436 21.0115 11.436L19.8145 12.378C19.4935 12.6306 19.0399 12.6132 18.7375 12.3384C18.0373 11.7024 16.5529 10.6488 14.1121 10.275C10.5241 9.72538 8.47209 6.92398 7.93269 5.45398C7.93269 5.45398 6.42309 10.3128 4.96869 12.1668C4.71069 12.4956 4.22409 12.531 3.90609 12.2598L2.96769 11.4588Z" fill="#333333"/>
</g>
<defs>
<clipPath id="clip0_2244_6911">
<rect width="24" height="24" fill="white"/>
</clipPath>
</defs>
</svg>
