<svg width="24" height="24" viewBox="0 0 24 24" fill="none" xmlns="http://www.w3.org/2000/svg">
<path d="M21.4284 11.7336C21.1986 11.7336 20.5518 11.853 20.0106 13.0938C20.0106 13.0938 19.0146 12.4806 17.6922 11.5416C15.684 10.1208 12.9852 7.9512 11.9994 6.0318C11.0136 7.9512 8.31479 10.1208 6.30659 11.5416C4.98479 12.4806 3.98819 13.0938 3.98819 13.0938C3.42359 11.8374 2.80019 11.7336 2.57039 11.7336C1.82339 12.3078 1.34399 13.1514 1.34399 14.109C1.34399 15.7944 2.80019 17.1546 4.58159 17.1546C4.65839 17.3082 4.73459 17.442 4.81139 17.5956C5.23319 18.381 5.73119 19.0896 6.36299 19.7028C6.76559 20.1048 7.20599 20.4312 7.68479 20.7372C8.93039 21.5226 10.4052 22.0014 11.9952 22.0014C11.9964 22.0014 11.997 22.0014 11.9982 22.0014C11.9994 22.0014 12 22.0014 12.0012 22.0014C13.5912 22.0014 15.0666 21.5226 16.3116 20.7372C16.7904 20.4312 17.2314 20.1048 17.6334 19.7028C18.2658 19.0896 18.7638 18.381 19.185 17.5956C19.2618 17.442 19.338 17.3082 19.4148 17.1546C21.1962 17.1546 22.6524 15.7944 22.6524 14.109C22.6524 13.1508 22.1736 12.3078 21.426 11.7336H21.4284ZM12.003 18.975C12.003 18.975 12.0012 18.975 12 18.975C11.9988 18.975 11.9982 18.975 11.997 18.975C11.3454 18.975 10.809 18.5538 10.6368 17.9598C10.5984 17.7678 10.7328 17.5764 10.9242 17.5764H13.0758C13.2672 17.5764 13.4016 17.7684 13.3572 17.9598C13.185 18.5538 12.6546 18.975 12.003 18.975Z" fill="#FFCCA8"/>
<path d="M6.3648 19.7034L5.9436 21.006C5.8476 21.3126 5.5794 21.504 5.292 21.5616C5.0814 21.6 4.8516 21.5808 4.6596 21.4464L3.0312 20.3736C2.5332 20.0478 2.514 19.32 2.9928 18.975L4.8126 17.5962C5.2344 18.3816 5.733 19.0902 6.3648 19.7034Z" fill="#333333"/>
<path d="M21.1356 20.3736L19.4879 21.4464C19.0283 21.753 18.3767 21.5424 18.2045 21.006L17.7635 19.6074C18.3575 18.9948 18.8363 18.2856 19.2197 17.5194L21.1739 18.975C21.6335 19.32 21.6144 20.0478 21.1356 20.3736Z" fill="#333333"/>
<path d="M10.5793 13.4958C10.5793 14.0706 10.1959 14.5302 9.71706 14.5302C9.23826 14.5302 8.85486 14.0706 8.85486 13.4958C8.85486 12.921 9.23766 12.4614 9.71706 12.4614C10.1965 12.4614 10.5793 12.921 10.5793 13.4958Z" fill="black"/>
<path d="M15.1392 13.4958C15.1392 14.0706 14.7558 14.5302 14.277 14.5302C13.7982 14.5302 13.4148 14.0706 13.4148 13.4958C13.4148 12.921 13.7976 12.4614 14.277 12.4614C14.7564 12.4614 15.1392 12.921 15.1392 13.4958Z" fill="black"/>
<path d="M13.3572 17.9598C13.185 18.5538 12.6486 18.975 11.997 18.975C11.3454 18.975 10.809 18.5538 10.6368 17.9598C10.5984 17.7678 10.7328 17.5764 10.9242 17.5764H13.0698C13.2612 17.5764 13.4148 17.7684 13.3572 17.9598Z" fill="#653717"/>
<path d="M21.48 10.4304C21.1542 6.9246 18.8364 3.9552 15.675 2.6718C15.33 2.5182 14.9472 2.4414 14.583 2.3844C14.0274 2.3076 13.491 2.2698 12.9354 2.346L12.5136 2.4036C12.3606 2.4228 12.201 2.4618 11.9964 2.4618C11.7918 2.4618 11.6322 2.4222 11.4792 2.4036L11.0574 2.346C10.5018 2.2698 9.96537 2.3076 9.40977 2.3844C9.04557 2.442 8.66277 2.5188 8.31777 2.6718C5.15697 3.9552 2.83857 6.9246 2.51277 10.4304C2.47437 10.8708 2.51277 11.7336 2.57037 11.7336C2.80017 11.7336 3.41337 11.8674 3.98817 13.0938C3.98817 13.0938 4.98417 12.4806 6.30657 11.5416C8.31297 10.122 11.0082 7.9548 11.9964 6.0372C12.9846 7.9554 15.6798 10.122 17.6862 11.5416C19.008 12.4806 20.0046 13.0938 20.0046 13.0938C20.5794 11.8674 21.1926 11.7336 21.4224 11.7336C21.48 11.7336 21.5184 10.8708 21.48 10.4304Z" fill="#333333"/>
</svg>
