<svg width="24" height="24" viewBox="0 0 24 24" fill="none" xmlns="http://www.w3.org/2000/svg"><g clip-path="url(#clip0_2254_7895)"><path d="M12.0001 22.4455C17.7689 22.4455 22.4455 17.7689 22.4455 12.0001C22.4455 6.23125 17.7689 1.55469 12.0001 1.55469C6.23125 1.55469 1.55469 6.23125 1.55469 12.0001C1.55469 17.7689 6.23125 22.4455 12.0001 22.4455Z" fill="#FFC84D"/><path d="M11.9999 19.0771C12.6802 19.0771 13.2317 18.5256 13.2317 17.8453C13.2317 17.165 12.6802 16.6135 11.9999 16.6135C11.3196 16.6135 10.7681 17.165 10.7681 17.8453C10.7681 18.5256 11.3196 19.0771 11.9999 19.0771Z" fill="#FF6D00"/><path d="M16.0866 10.0321H13.4034C13.1718 10.0321 12.9612 9.89887 12.8616 9.68947C12.762 9.48007 12.792 9.23227 12.9384 9.05287L14.3934 7.26787H13.3314C12.9996 7.26787 12.7314 6.99907 12.7314 6.66787C12.7314 6.33667 12.9996 6.06787 13.3314 6.06787H15.6564C15.888 6.06787 16.0986 6.20107 16.1982 6.41047C16.2978 6.61987 16.2678 6.86767 16.1214 7.04707L14.6664 8.83207H16.086C16.4178 8.83207 16.686 9.10087 16.686 9.43207C16.686 9.76327 16.4178 10.0321 16.086 10.0321H16.0866Z" fill="#6391FF"/><path d="M21.1218 8.56273H17.4984C17.2668 8.56273 17.0562 8.42953 16.9566 8.22013C16.857 8.01073 16.887 7.76293 17.0334 7.58353L19.2774 4.83013H17.4018C17.07 4.83013 16.8018 4.56133 16.8018 4.23013C16.8018 3.89893 17.07 3.63013 17.4018 3.63013H20.5404C20.772 3.63013 20.9826 3.76333 21.0822 3.97273C21.1818 4.18213 21.1512 4.42993 21.0054 4.60933L18.7614 7.36273H21.1218C21.4536 7.36273 21.7218 7.63153 21.7218 7.96273C21.7218 8.29393 21.4536 8.56273 21.1218 8.56273Z" fill="#6391FF"/><path d="M7.3166 12.9144C7.1684 12.8412 6.998 12.9696 7.031 13.1316C7.214 14.031 7.988 14.7066 8.915 14.7066C9.842 14.7066 10.616 14.031 10.799 13.1316C10.832 12.9696 10.6616 12.8412 10.5134 12.9144C10.19 13.074 9.6392 13.275 8.915 13.275C8.1908 13.275 7.64 13.074 7.3166 12.9144Z" fill="black"/><path d="M16.6838 12.9144C16.832 12.8412 17.0024 12.9696 16.9694 13.1316C16.7864 14.031 16.0124 14.7066 15.0854 14.7066C14.1584 14.7066 13.3844 14.031 13.2014 13.1316C13.1684 12.9696 13.3388 12.8412 13.487 12.9144C13.8104 13.074 14.3612 13.275 15.0854 13.275C15.809 13.275 16.3604 13.074 16.6838 12.9144Z" fill="black"/></g><defs><clipPath id="clip0_2254_7895"><rect width="24" height="24" fill="white"/></clipPath></defs></svg>