<svg width="24" height="24" viewBox="0 0 24 24" fill="none" xmlns="http://www.w3.org/2000/svg"><g clip-path="url(#clip0_2254_7960)"><path d="M14.7105 8.81389C14.8671 8.25169 15.2817 7.79749 15.7959 7.52149L16.2339 7.30009L22.7589 3.88429C23.1183 3.69169 23.2479 3.24109 23.0469 2.88649L22.7757 2.41669C22.5693 2.06509 22.1139 1.95229 21.7671 2.16709L15.5463 6.11029L15.1353 6.37909C14.6397 6.68629 14.0385 6.81829 13.4733 6.67309C12.5217 6.42829 11.1039 6.38629 9.92551 7.07869C8.06851 8.17009 7.61551 9.86089 8.32651 11.0717C9.01891 12.2927 10.7097 12.7457 12.5841 11.6831C13.7727 11.0093 14.4453 9.76009 14.7093 8.81389H14.7105Z" fill="#8A94A0"/><path d="M9.17578 18.9294H14.8224V20.9352C14.8224 21.4902 14.3718 21.9408 13.8168 21.9408H10.182C9.62698 21.9408 9.17638 21.4902 9.17638 20.9352L9.17578 18.9294Z" fill="#AFB7C0"/><path fill-rule="evenodd" clip-rule="evenodd" d="M22.055 9.33057C22.6394 9.33057 23.108 9.83277 23.0516 10.4148C22.5068 16.0392 17.7662 20.4354 11.999 20.4354C6.23179 20.4354 1.49179 16.0392 0.946993 10.4148C0.890593 9.83337 1.35919 9.33057 1.94359 9.33057H22.055Z" fill="#D0D5DA"/></g><defs><clipPath id="clip0_2254_7960"><rect width="24" height="24" fill="white"/></clipPath></defs></svg>