<svg width="16" height="16" viewBox="0 0 16 16" fill="none" xmlns="http://www.w3.org/2000/svg">
<g clip-path="url(#clip0_2668_14870)">
<path d="M9.07204 2.12897V1.38257C9.07204 0.871366 8.72284 0.397766 8.21844 0.315766C7.57564 0.211366 7.02004 0.704566 7.02004 1.32777V2.12937C7.02004 2.27777 6.93084 2.40577 6.79844 2.47297C5.90404 2.92817 5.29004 3.85377 5.29004 4.92617H10.802C10.802 3.85377 10.188 2.92777 9.29364 2.47297C9.16124 2.40577 9.07204 2.27737 9.07204 2.12897Z" fill="#FFD06C"/>
<path d="M10.9164 4.44141H5.17557C4.93433 4.44141 4.73877 4.63697 4.73877 4.87821V6.01821C4.73877 6.25944 4.93433 6.45501 5.17557 6.45501H10.9164C11.1576 6.45501 11.3532 6.25944 11.3532 6.01821V4.87821C11.3532 4.63697 11.1576 4.44141 10.9164 4.44141Z" fill="#93C9FF"/>
<path d="M10.5731 15.6987H5.42672C4.57312 15.6987 3.86992 15.0287 3.82872 14.1759L3.53632 8.13228C3.49232 7.21948 4.22032 6.45508 5.13432 6.45508H10.8659C11.7799 6.45508 12.5083 7.21948 12.4639 8.13228L12.1715 14.1759C12.1303 15.0283 11.4267 15.6987 10.5731 15.6987Z" fill="#C8E1FF"/>
</g>
<defs>
<clipPath id="clip0_2668_14870">
<rect width="16" height="16" fill="white"/>
</clipPath>
</defs>
</svg>
