<svg width="80" height="80" viewBox="0 0 80 80" fill="none" xmlns="http://www.w3.org/2000/svg">
<rect width="80" height="80" rx="10" fill="#3078C9" fill-opacity="0.05"/>
<path d="M56.266 70.122C53.0927 70.122 50.5447 69.9447 48.622 69.59C46.6993 69.254 45.2807 68.694 44.366 67.91C43.4513 67.126 42.994 66.0807 42.994 64.774C42.994 63.4673 43.442 62.4407 44.338 61.694C45.2527 60.9287 46.662 60.3873 48.566 60.07C50.4887 59.734 53.0553 59.566 56.266 59.566C59.4767 59.566 62.034 59.734 63.938 60.07C65.8607 60.3873 67.27 60.9287 68.166 61.694C69.0807 62.4407 69.538 63.4673 69.538 64.774C69.538 66.0807 69.0807 67.126 68.166 67.91C67.2513 68.694 65.8327 69.254 63.91 69.59C61.9873 69.9447 59.4393 70.122 56.266 70.122ZM56.266 65.586C57.554 65.586 58.506 65.5673 59.122 65.53C59.7567 65.4927 60.2047 65.418 60.466 65.306C60.7273 65.194 60.858 65.0167 60.858 64.774C60.858 64.55 60.7273 64.382 60.466 64.27C60.2047 64.158 59.7567 64.0833 59.122 64.046C58.4873 63.99 57.5353 63.962 56.266 63.962C54.9967 63.962 54.0447 63.99 53.41 64.046C52.7753 64.0833 52.3273 64.158 52.066 64.27C51.8047 64.382 51.674 64.55 51.674 64.774C51.674 65.0167 51.8047 65.194 52.066 65.306C52.3273 65.418 52.766 65.4927 53.382 65.53C54.0167 65.5673 54.978 65.586 56.266 65.586ZM46.606 59.034C44.6087 58.922 43.1153 58.5487 42.126 57.914C41.1367 57.2793 40.642 56.4767 40.642 55.506C40.642 54.778 40.894 54.022 41.398 53.238H39.83V49.458H51.366C51.5527 49.234 51.646 49.0567 51.646 48.926C51.646 48.6273 51.2633 48.394 50.498 48.226C49.6207 48.0393 48.37 47.946 46.746 47.946C44.6927 47.946 42.714 48.0767 40.81 48.338L40.67 43.634C41.6593 43.466 42.8447 43.3353 44.226 43.242C45.6073 43.1487 47.0073 43.102 48.426 43.102C50.2927 43.102 51.9633 43.1953 53.438 43.382C57.022 43.8487 58.814 44.9127 58.814 46.574C58.814 47.3953 58.3753 48.3567 57.498 49.458H59.01V53.238H48.622C48.5473 53.3687 48.51 53.49 48.51 53.602C48.51 53.826 48.6407 54.0127 48.902 54.162C49.182 54.3113 49.5927 54.3953 50.134 54.414C50.5633 54.4513 51.3473 54.47 52.486 54.47C55.006 54.47 57.0127 54.33 58.506 54.05L59.318 58.558C57.6007 58.9687 54.9127 59.174 51.254 59.174C49.3873 59.174 47.838 59.1273 46.606 59.034ZM60.718 58.894C60.3073 56.0753 60.102 52.9953 60.102 49.654C60.102 47.0593 60.2233 44.8007 60.466 42.878H69.202C69.314 44.2407 69.37 45.7527 69.37 47.414V48.394H72.17V54.554H69.09C68.9033 56.29 68.698 57.7367 68.474 58.894H60.718Z" fill="#3078C9"/>
<path d="M40.83 28.49C43.8167 27.7433 46.0567 26.726 47.55 25.438C49.062 24.1313 49.818 22.6847 49.818 21.098C49.818 20.7433 49.7713 20.3513 49.678 19.922C49.4913 19.1567 49.118 18.578 48.558 18.186C48.0167 17.7753 47.3167 17.57 46.458 17.57C45.0953 17.57 43.5087 18.0647 41.698 19.054L40.942 13.426C42.3047 12.474 43.7233 11.7553 45.198 11.27C46.6727 10.7847 48.1193 10.542 49.538 10.542C51.106 10.542 52.5433 10.8313 53.85 11.41C55.1753 11.9887 56.2673 12.8567 57.126 14.014C57.9847 15.1527 58.526 16.534 58.75 18.158C58.862 18.998 58.918 19.81 58.918 20.594C58.918 23.562 58.1713 26.1287 56.678 28.294C55.1847 30.4593 53.206 32.158 50.742 33.39C48.2967 34.622 45.6367 35.3967 42.762 35.714L40.83 28.49ZM61.69 36.834C61.3353 32.2793 61.158 27.6033 61.158 22.806C61.158 18.774 61.2887 14.5833 61.55 10.234H70.286C70.398 12.754 70.454 15.2647 70.454 17.766C70.454 24.1127 70.118 30.4687 69.446 36.834H61.69Z" fill="#3078C9"/>
<path d="M17.73 35.5991C14.5352 35.5991 12.0865 34.5475 10.3839 32.4443C8.68131 30.3412 7.83 27.2243 7.83 23.0938C7.83 18.9633 8.68131 15.8464 10.3839 13.7433C12.0865 11.6401 14.5352 10.5885 17.73 10.5885C20.9248 10.5885 23.3735 11.6401 25.0761 13.7433C26.7787 15.8464 27.63 18.9633 27.63 23.0938C27.63 27.2243 26.7787 30.3412 25.0761 32.4443C23.3735 34.5475 20.9248 35.5991 17.73 35.5991ZM17.73 29.3748C18.2848 29.3748 18.7344 29.1948 19.0787 28.8348C19.4422 28.4559 19.71 27.8117 19.8822 26.9022C20.0735 25.9927 20.1691 24.7233 20.1691 23.0938C20.1691 21.4643 20.0735 20.1948 19.8822 19.2854C19.71 18.3759 19.4422 17.7412 19.0787 17.3812C18.7344 17.0022 18.2848 16.8127 17.73 16.8127C17.1752 16.8127 16.7161 17.0022 16.3526 17.3812C16.0083 17.7412 15.7404 18.3759 15.5491 19.2854C15.377 20.1948 15.2909 21.4643 15.2909 23.0938C15.2909 24.7233 15.377 25.9927 15.5491 26.9022C15.7404 27.8117 16.0083 28.4559 16.3526 28.8348C16.7161 29.1948 17.1752 29.3748 17.73 29.3748ZM29.6674 36.878C29.2465 31.9517 29.0361 26.9212 29.0361 21.7864C29.0361 17.6748 29.1604 13.7054 29.4091 9.878H37.7022C37.8552 12.8527 37.9317 15.638 37.9317 18.2338V19.4559H40.83V25.7085H37.7596C37.6257 29.2896 37.3483 33.0127 36.9274 36.878H29.6674Z" fill="#3078C9"/>
<path d="M30.57 52.878V60.438H17.83V52.878H30.57Z" fill="#3078C9"/>
</svg>
