<svg width="131" height="36" viewBox="0 0 131 36" fill="none" xmlns="http://www.w3.org/2000/svg">
<g clip-path="url(#clip0_2157_7508)">
<path d="M81.3151 36C79.597 36 77.9878 35.8799 76.4872 35.6396C74.9866 35.3993 73.7362 35.0716 72.7358 34.6565L73.5513 26.7594C74.443 27.0653 75.4433 27.3056 76.5524 27.4803C77.6615 27.6769 78.738 27.7752 79.7819 27.7752C80.4126 27.7752 81.0215 27.7425 81.6087 27.6769C82.609 27.5459 83.4137 27.2291 84.0226 26.7267C84.6315 26.2242 85.0556 25.4378 85.2948 24.3674C84.4467 24.7824 83.4572 25.0992 82.3263 25.3176C81.2172 25.5579 80.0537 25.6781 78.8359 25.6781C75.9 25.6781 73.8558 24.706 72.7032 22.7617C71.5723 20.7957 71.0069 18.1087 71.0069 14.7008C71.0069 13.0187 71.1809 10.4519 71.5288 7.00031H80.3365C80.2495 8.74793 80.206 10.3754 80.206 11.8827C80.206 13.3901 80.2603 14.5479 80.3691 15.3562C80.4996 16.1426 80.6953 16.6996 80.9563 17.0273C81.2172 17.355 81.5652 17.5625 82.0001 17.6499C82.3263 17.7155 82.6417 17.7482 82.9461 17.7482C83.7943 17.7482 84.6533 17.5188 85.5232 17.0601C85.4797 13.3027 85.4036 9.94943 85.2948 7.00031H94.5265C94.7657 9.64359 94.8853 12.4835 94.8853 15.52C94.8853 17.8793 94.8201 20.2386 94.6896 22.5979C94.4504 27.1636 93.1673 30.5387 90.8404 32.7232C88.5134 34.9078 85.3383 36 81.3151 36Z" fill="#121212"/>
<path d="M81.3151 36C79.597 36 77.9878 35.8799 76.4872 35.6396C74.9866 35.3993 73.7362 35.0716 72.7358 34.6565L73.5513 26.7594C74.443 27.0653 75.4433 27.3056 76.5524 27.4803C77.6615 27.6769 78.738 27.7752 79.7819 27.7752C80.4126 27.7752 81.0215 27.7425 81.6087 27.6769C82.609 27.5459 83.4137 27.2291 84.0226 26.7267C84.6315 26.2242 85.0556 25.4378 85.2948 24.3674C84.4467 24.7824 83.4572 25.0992 82.3263 25.3176C81.2172 25.5579 80.0537 25.6781 78.8359 25.6781C75.9 25.6781 73.8558 24.706 72.7032 22.7617C71.5723 20.7957 71.0069 18.1087 71.0069 14.7008C71.0069 13.0187 71.1809 10.4519 71.5288 7.00031H80.3365C80.2495 8.74793 80.206 10.3754 80.206 11.8827C80.206 13.3901 80.2603 14.5479 80.3691 15.3562C80.4996 16.1426 80.6953 16.6996 80.9563 17.0273C81.2172 17.355 81.5652 17.5625 82.0001 17.6499C82.3263 17.7155 82.6417 17.7482 82.9461 17.7482C83.7943 17.7482 84.6533 17.5188 85.5232 17.0601C85.4797 13.3027 85.4036 9.94943 85.2948 7.00031H94.5265C94.7657 9.64359 94.8853 12.4835 94.8853 15.52C94.8853 17.8793 94.8201 20.2386 94.6896 22.5979C94.4504 27.1636 93.1673 30.5387 90.8404 32.7232C88.5134 34.9078 85.3383 36 81.3151 36Z" fill="black" fill-opacity="0.2"/>
<path d="M61.4847 29.0418C59.2403 29.0418 57.2952 28.3578 55.6493 26.9897L55.489 28.4005H47.2168C46.7252 23.0567 46.4794 17.403 46.4794 11.4394C46.4794 7.72011 46.5756 3.93672 46.7679 0.0892029H56.002C56.0661 2.78246 56.0982 5.44366 56.0982 8.0728C57.5944 7.19642 59.3899 6.75823 61.4847 6.75823C63.6436 6.75823 65.5139 7.20711 67.0956 8.10486C68.6774 8.98124 69.8851 10.2531 70.7187 11.9203C71.5523 13.5876 71.9692 15.5755 71.9692 17.884C71.9692 20.1925 71.5523 22.191 70.7187 23.8797C69.8851 25.5469 68.6774 26.8187 67.0956 27.6951C65.5139 28.5929 63.6436 29.0418 61.4847 29.0418ZM59.3044 21.8597C60.309 21.8597 61.0892 21.5284 61.645 20.8658C62.2221 20.2032 62.5107 19.2092 62.5107 17.884C62.5107 16.5801 62.2221 15.5968 61.645 14.9342C61.0892 14.2716 60.309 13.9403 59.3044 13.9403C58.2998 13.9403 57.5089 14.2716 56.9318 14.9342C56.376 15.5968 56.0982 16.5801 56.0982 17.884C56.0982 19.2092 56.376 20.2032 56.9318 20.8658C57.5089 21.5284 58.2998 21.8597 59.3044 21.8597Z" fill="#121212"/>
<path d="M61.4847 29.0418C59.2403 29.0418 57.2952 28.3578 55.6493 26.9897L55.489 28.4005H47.2168C46.7252 23.0567 46.4794 17.403 46.4794 11.4394C46.4794 7.72011 46.5756 3.93672 46.7679 0.0892029H56.002C56.0661 2.78246 56.0982 5.44366 56.0982 8.0728C57.5944 7.19642 59.3899 6.75823 61.4847 6.75823C63.6436 6.75823 65.5139 7.20711 67.0956 8.10486C68.6774 8.98124 69.8851 10.2531 70.7187 11.9203C71.5523 13.5876 71.9692 15.5755 71.9692 17.884C71.9692 20.1925 71.5523 22.191 70.7187 23.8797C69.8851 25.5469 68.6774 26.8187 67.0956 27.6951C65.5139 28.5929 63.6436 29.0418 61.4847 29.0418ZM59.3044 21.8597C60.309 21.8597 61.0892 21.5284 61.645 20.8658C62.2221 20.2032 62.5107 19.2092 62.5107 17.884C62.5107 16.5801 62.2221 15.5968 61.645 14.9342C61.0892 14.2716 60.309 13.9403 59.3044 13.9403C58.2998 13.9403 57.5089 14.2716 56.9318 14.9342C56.376 15.5968 56.0982 16.5801 56.0982 17.884C56.0982 19.2092 56.376 20.2032 56.9318 20.8658C57.5089 21.5284 58.2998 21.8597 59.3044 21.8597Z" fill="black" fill-opacity="0.2"/>
<path d="M38.2695 27.029C36.9435 28.3866 34.9331 29.0653 32.2383 29.0653C29.7574 29.0653 27.8432 28.4851 26.4958 27.3246C25.1698 26.186 24.5068 24.4781 24.5068 22.2009C24.5068 19.9018 25.2019 18.1829 26.5921 17.0443C27.9822 15.9057 30.0033 15.3364 32.6554 15.3364C33.9386 15.3364 35.008 15.413 35.8635 15.5663C36.7404 15.7196 37.4675 15.9823 38.045 16.3546C37.8525 15.5225 37.4675 14.9313 36.8901 14.581C36.334 14.2306 35.5106 14.0007 34.4198 13.8913C33.7782 13.8475 33.2863 13.8256 32.9441 13.8256C31.8747 13.8256 30.784 13.9241 29.6718 14.1212C28.5597 14.3182 27.5331 14.581 26.5921 14.9094L25.6296 7.74936C26.6135 7.35523 27.886 7.02679 29.4473 6.76403C31.0299 6.50128 32.6447 6.3699 34.2915 6.3699C35.7886 6.3699 37.1681 6.47938 38.4299 6.69835C41.0178 7.13627 43.0924 8.40625 44.6537 10.5083C46.2149 12.5884 47.0383 15.4459 47.1239 19.0807C47.1453 20.6791 47.0918 22.2994 46.9635 23.9416C46.8566 25.5619 46.6748 27.0509 46.4181 28.4085H38.3979L38.2695 27.029ZM35.5106 23.449C36.473 23.449 37.2002 23.3285 37.6921 23.0877C38.2054 22.8249 38.462 22.387 38.462 21.7739C38.462 21.1608 38.2054 20.7338 37.6921 20.493C37.1788 20.2302 36.4516 20.0988 35.5106 20.0988C34.5909 20.0988 33.8745 20.2302 33.3612 20.493C32.8692 20.7338 32.6233 21.1608 32.6233 21.7739C32.6233 22.387 32.8692 22.8249 33.3612 23.0877C33.8745 23.3285 34.5909 23.449 35.5106 23.449Z" fill="#121212"/>
<path d="M38.2695 27.029C36.9435 28.3866 34.9331 29.0653 32.2383 29.0653C29.7574 29.0653 27.8432 28.4851 26.4958 27.3246C25.1698 26.186 24.5068 24.4781 24.5068 22.2009C24.5068 19.9018 25.2019 18.1829 26.5921 17.0443C27.9822 15.9057 30.0033 15.3364 32.6554 15.3364C33.9386 15.3364 35.008 15.413 35.8635 15.5663C36.7404 15.7196 37.4675 15.9823 38.045 16.3546C37.8525 15.5225 37.4675 14.9313 36.8901 14.581C36.334 14.2306 35.5106 14.0007 34.4198 13.8913C33.7782 13.8475 33.2863 13.8256 32.9441 13.8256C31.8747 13.8256 30.784 13.9241 29.6718 14.1212C28.5597 14.3182 27.5331 14.581 26.5921 14.9094L25.6296 7.74936C26.6135 7.35523 27.886 7.02679 29.4473 6.76403C31.0299 6.50128 32.6447 6.3699 34.2915 6.3699C35.7886 6.3699 37.1681 6.47938 38.4299 6.69835C41.0178 7.13627 43.0924 8.40625 44.6537 10.5083C46.2149 12.5884 47.0383 15.4459 47.1239 19.0807C47.1453 20.6791 47.0918 22.2994 46.9635 23.9416C46.8566 25.5619 46.6748 27.0509 46.4181 28.4085H38.3979L38.2695 27.029ZM35.5106 23.449C36.473 23.449 37.2002 23.3285 37.6921 23.0877C38.2054 22.8249 38.462 22.387 38.462 21.7739C38.462 21.1608 38.2054 20.7338 37.6921 20.493C37.1788 20.2302 36.4516 20.0988 35.5106 20.0988C34.5909 20.0988 33.8745 20.2302 33.3612 20.493C32.8692 20.7338 32.6233 21.1608 32.6233 21.7739C32.6233 22.387 32.8692 22.8249 33.3612 23.0877C33.8745 23.3285 34.5909 23.449 35.5106 23.449Z" fill="black" fill-opacity="0.2"/>
<path d="M15.0053 29.0181C12.7609 29.0181 10.8158 28.3341 9.16991 26.9661L9.0096 28.3769H0.73744C0.245813 23.0331 0 17.3794 0 11.4158C0 7.69649 0.0961879 3.9131 0.288564 0.0655823H9.5226C9.58673 2.75884 9.61879 5.42004 9.61879 8.04918C11.115 7.1728 12.9106 6.73461 15.0053 6.73461C17.1642 6.73461 19.0345 7.18349 20.6163 8.08124C22.198 8.95762 23.4057 10.2294 24.2393 11.8967C25.073 13.5639 25.4898 15.5518 25.4898 17.8603C25.4898 20.1688 25.073 22.1674 24.2393 23.8561C23.4057 25.5233 22.198 26.7951 20.6163 27.6715C19.0345 28.5693 17.1642 29.0181 15.0053 29.0181ZM12.8251 21.8361C13.8297 21.8361 14.6099 21.5048 15.1656 20.8422C15.7428 20.1795 16.0313 19.1856 16.0313 17.8603C16.0313 16.5565 15.7428 15.5732 15.1656 14.9106C14.6099 14.248 13.8297 13.9166 12.8251 13.9166C11.8204 13.9166 11.0295 14.248 10.4524 14.9106C9.89667 15.5732 9.61879 16.5565 9.61879 17.8603C9.61879 19.1856 9.89667 20.1795 10.4524 20.8422C11.0295 21.5048 11.8204 21.8361 12.8251 21.8361Z" fill="#121212"/>
<path d="M15.0053 29.0181C12.7609 29.0181 10.8158 28.3341 9.16991 26.9661L9.0096 28.3769H0.73744C0.245813 23.0331 0 17.3794 0 11.4158C0 7.69649 0.0961879 3.9131 0.288564 0.0655823H9.5226C9.58673 2.75884 9.61879 5.42004 9.61879 8.04918C11.115 7.1728 12.9106 6.73461 15.0053 6.73461C17.1642 6.73461 19.0345 7.18349 20.6163 8.08124C22.198 8.95762 23.4057 10.2294 24.2393 11.8967C25.073 13.5639 25.4898 15.5518 25.4898 17.8603C25.4898 20.1688 25.073 22.1674 24.2393 23.8561C23.4057 25.5233 22.198 26.7951 20.6163 27.6715C19.0345 28.5693 17.1642 29.0181 15.0053 29.0181ZM12.8251 21.8361C13.8297 21.8361 14.6099 21.5048 15.1656 20.8422C15.7428 20.1795 16.0313 19.1856 16.0313 17.8603C16.0313 16.5565 15.7428 15.5732 15.1656 14.9106C14.6099 14.248 13.8297 13.9166 12.8251 13.9166C11.8204 13.9166 11.0295 14.248 10.4524 14.9106C9.89667 15.5732 9.61879 16.5565 9.61879 17.8603C9.61879 19.2092 9.89667 20.1795 10.4524 20.8422C11.0295 21.5048 11.8204 21.8361 12.8251 21.8361Z" fill="black" fill-opacity="0.2"/>
<path d="M113.022 29.4435C109.603 29.4435 106.859 29.2519 104.787 28.8686C102.716 28.5055 101.188 27.9003 100.203 27.053C99.2174 26.2057 98.7248 25.0759 98.7248 23.6638C98.7248 22.2516 99.2074 21.1421 100.173 20.3351C101.158 19.508 102.676 18.9229 104.727 18.58C106.798 18.2169 109.563 18.0353 113.022 18.0353C116.48 18.0353 119.235 18.2169 121.286 18.58C123.357 18.9229 124.875 19.508 125.841 20.3351C126.826 21.1421 127.319 22.2516 127.319 23.6638C127.319 25.0759 126.826 26.2057 125.841 27.053C124.855 27.9003 123.327 28.5055 121.256 28.8686C119.185 29.2519 116.44 29.4435 113.022 29.4435ZM113.022 24.5413C114.409 24.5413 115.435 24.5212 116.098 24.4808C116.782 24.4405 117.265 24.3598 117.546 24.2387C117.828 24.1177 117.968 23.926 117.968 23.6638C117.968 23.4217 117.828 23.2401 117.546 23.1191C117.265 22.998 116.782 22.9173 116.098 22.877C115.415 22.8165 114.389 22.7862 113.022 22.7862C111.654 22.7862 110.629 22.8165 109.945 22.877C109.261 22.9173 108.779 22.998 108.497 23.1191C108.216 23.2401 108.075 23.4217 108.075 23.6638C108.075 23.926 108.216 24.1177 108.497 24.2387C108.779 24.3598 109.251 24.4405 109.915 24.4808C110.599 24.5212 111.634 24.5413 113.022 24.5413ZM102.616 17.4604C100.464 17.3393 98.8555 16.9358 97.7898 16.2499C96.724 15.564 96.1912 14.6966 96.1912 13.6475C96.1912 12.8607 96.4626 12.0437 97.0056 11.1964H95.3165V7.11124H107.743C107.944 6.86915 108.045 6.6775 108.045 6.53628C108.045 6.21351 107.633 5.96133 106.808 5.77977C105.863 5.57803 104.516 5.47717 102.767 5.47717C100.555 5.47717 98.4232 5.61838 96.3721 5.90081L96.2213 0.817036C97.2871 0.635472 98.5639 0.494256 100.052 0.393388C101.54 0.292519 103.048 0.242085 104.576 0.242085C106.587 0.242085 108.387 0.342954 109.975 0.544691C113.836 1.04903 115.766 2.19894 115.766 3.9944C115.766 4.88204 115.294 5.92099 114.349 7.11124H115.978V11.1964H104.787C104.707 11.3376 104.667 11.4688 104.667 11.5898C104.667 11.8319 104.808 12.0336 105.089 12.195C105.391 12.3564 105.833 12.4472 106.416 12.4674C106.879 12.5077 107.723 12.5279 108.95 12.5279C111.664 12.5279 113.826 12.3766 115.435 12.074L116.309 16.9459C114.459 17.3897 111.564 17.6117 107.623 17.6117C105.612 17.6117 103.943 17.5612 102.616 17.4604ZM117.817 17.309C117.375 14.2628 117.154 10.9342 117.154 7.32306C117.154 4.51891 117.285 2.07789 117.546 0H126.957C127.077 1.47268 127.138 3.10675 127.138 4.90222V5.96133H130.154V12.6187H126.836C126.635 14.4948 126.414 16.0583 126.172 17.309H117.817Z" fill="#30B0C7"/>
</g>
<defs>
<clipPath id="clip0_2157_7508">
<rect width="130.154" height="36" fill="white"/>
</clipPath>
</defs>
</svg>