<svg width="36" height="36" viewBox="0 0 36 36" fill="none" xmlns="http://www.w3.org/2000/svg">
<g clip-path="url(#clip0_1982_4692)">
<path d="M14.949 29.961C15.1164 29.3211 16.4565 27.7245 17.1288 26.9523C17.2863 26.7705 17.5824 26.8479 17.631 27.0837C17.8389 28.0854 18.2268 30.1338 18.0594 30.7746C17.8344 31.6332 16.9569 32.148 16.0974 31.923C15.2388 31.698 14.724 30.8205 14.949 29.961Z" fill="#88C5FF"/>
<path d="M22.1805 29.961C22.3479 29.3211 23.688 27.7245 24.3603 26.9523C24.5178 26.7705 24.8139 26.8479 24.8625 27.0837C25.0704 28.0854 25.4583 30.1338 25.2909 30.7746C25.0659 31.6332 24.1884 32.148 23.3289 31.923C22.4703 31.698 21.9555 30.8205 22.1805 29.961Z" fill="#88C5FF"/>
<path d="M7.71748 29.961C7.88488 29.3211 9.22498 27.7245 9.89728 26.9523C10.0548 26.7705 10.3509 26.8479 10.3995 27.0837C10.6074 28.0854 10.9953 30.1338 10.8279 30.7746C10.6029 31.6332 9.72538 32.148 8.86588 31.923C8.00728 31.698 7.49248 30.8205 7.71748 29.961Z" fill="#88C5FF"/>
<path d="M27.387 24.5538H8.42041V14.7276L27.135 15.9903L27.387 24.5538Z" fill="#E5E8EB"/>
<path d="M20.4597 18.6399C24.7876 18.6399 28.296 15.1315 28.296 10.8036C28.296 6.47572 24.7876 2.96729 20.4597 2.96729C16.1318 2.96729 12.6234 6.47572 12.6234 10.8036C12.6234 15.1315 16.1318 18.6399 20.4597 18.6399Z" fill="#E5E8EB"/>
<path d="M27.1044 24.5538C30.7747 24.5538 33.75 21.5784 33.75 17.9082C33.75 14.2379 30.7747 11.2626 27.1044 11.2626C23.4341 11.2626 20.4588 14.2379 20.4588 17.9082C20.4588 21.5784 23.4341 24.5538 27.1044 24.5538Z" fill="#E5E8EB"/>
<path d="M8.4204 24.5538C11.8282 24.5538 14.5908 21.7912 14.5908 18.3834C14.5908 14.9756 11.8282 12.213 8.4204 12.213C5.01258 12.213 2.25 14.9756 2.25 18.3834C2.25 21.7912 5.01258 24.5538 8.4204 24.5538Z" fill="#E5E8EB"/>
<path d="M12.6234 16.9902C15.4129 16.9902 17.6742 14.7289 17.6742 11.9394C17.6742 9.1499 15.4129 6.88858 12.6234 6.88858C9.83389 6.88858 7.57257 9.1499 7.57257 11.9394C7.57257 14.7289 9.83389 16.9902 12.6234 16.9902Z" fill="#E5E8EB"/>
</g>
<defs>
<clipPath id="clip0_1982_4692">
<rect width="36" height="36" fill="white"/>
</clipPath>
</defs>
</svg>
