<svg width="36" height="36" viewBox="0 0 36 36" fill="none" xmlns="http://www.w3.org/2000/svg">
<g clip-path="url(#clip0_1982_4714)">
<path d="M24.946 30.933C24.847 31.104 24.658 31.203 24.478 31.203C24.379 31.203 24.289 31.176 24.208 31.131L23.218 30.555V31.698C23.218 31.995 22.975 32.238 22.678 32.238C22.381 32.238 22.138 31.995 22.138 31.698V30.555L21.148 31.131C21.058 31.176 20.968 31.203 20.878 31.203C20.689 31.203 20.509 31.104 20.41 30.933C20.257 30.672 20.347 30.339 20.608 30.195L21.598 29.628L20.608 29.052C20.347 28.899 20.257 28.566 20.41 28.314C20.554 28.053 20.887 27.963 21.148 28.116L22.138 28.692V27.54C22.138 27.243 22.381 27 22.678 27C22.975 27 23.218 27.243 23.218 27.54V28.692L24.208 28.116C24.46 27.963 24.793 28.053 24.946 28.314C25.09 28.566 25 28.899 24.748 29.052L23.758 29.628L24.748 30.195C25 30.339 25.09 30.672 24.946 30.933Z" fill="#A8BFFF"/>
<path d="M11.0528 29.961C11.2202 29.3211 12.5603 27.7245 13.2326 26.9523C13.3901 26.7705 13.6862 26.8479 13.7348 27.0837C13.9427 28.0854 14.3306 30.1338 14.1632 30.7746C13.9382 31.6332 13.0607 32.148 12.2012 31.923C11.3426 31.698 10.8278 30.8205 11.0528 29.961Z" fill="#88C5FF"/>
<path d="M27.387 24.5538H8.42041V14.7276L27.135 15.9903L27.387 24.5538Z" fill="#E5E8EB"/>
<path d="M20.4597 18.6399C24.7876 18.6399 28.296 15.1315 28.296 10.8036C28.296 6.47572 24.7876 2.96729 20.4597 2.96729C16.1318 2.96729 12.6234 6.47572 12.6234 10.8036C12.6234 15.1315 16.1318 18.6399 20.4597 18.6399Z" fill="#E5E8EB"/>
<path d="M27.1044 24.5538C30.7747 24.5538 33.75 21.5784 33.75 17.9082C33.75 14.2379 30.7747 11.2626 27.1044 11.2626C23.4341 11.2626 20.4588 14.2379 20.4588 17.9082C20.4588 21.5784 23.4341 24.5538 27.1044 24.5538Z" fill="#E5E8EB"/>
<path d="M8.4204 24.5538C11.8282 24.5538 14.5908 21.7912 14.5908 18.3834C14.5908 14.9756 11.8282 12.213 8.4204 12.213C5.01258 12.213 2.25 14.9756 2.25 18.3834C2.25 21.7912 5.01258 24.5538 8.4204 24.5538Z" fill="#E5E8EB"/>
<path d="M12.6234 16.9902C15.4129 16.9902 17.6742 14.7289 17.6742 11.9394C17.6742 9.1499 15.4129 6.88858 12.6234 6.88858C9.83389 6.88858 7.57257 9.1499 7.57257 11.9394C7.57257 14.7289 9.83389 16.9902 12.6234 16.9902Z" fill="#E5E8EB"/>
</g>
<defs>
<clipPath id="clip0_1982_4714">
<rect width="36" height="36" fill="white"/>
</clipPath>
</defs>
</svg>
