<svg width="36" height="36" viewBox="0 0 36 36" fill="none" xmlns="http://www.w3.org/2000/svg">
<g clip-path="url(#clip0_1982_4704)">
<path d="M27.6661 24.534V24.552H27.3871C27.4771 24.552 27.5761 24.552 27.6661 24.534Z" fill="#E5E8EB"/>
<path d="M34.0291 17.91C34.0291 21.492 31.2121 24.399 27.6661 24.534C27.5761 24.552 27.4771 24.552 27.3871 24.552H8.70305C5.29205 24.552 2.52905 21.789 2.52905 18.387C2.52905 15.255 4.85105 12.672 7.87505 12.276C7.85705 12.168 7.85705 12.06 7.85705 11.943C7.85705 9.153 10.1161 6.885 12.9061 6.885C13.2481 6.885 13.5811 6.921 13.8961 6.984C15.2371 4.59 17.8021 2.97 20.7361 2.97C25.0651 2.97 28.5751 6.48 28.5751 10.8C28.5751 10.989 28.5661 11.178 28.5571 11.367C31.6711 11.916 34.0291 14.634 34.0291 17.91Z" fill="#E5E8EB"/>
<path d="M12.483 30.933C12.384 31.104 12.195 31.203 12.015 31.203C11.916 31.203 11.826 31.176 11.745 31.131L10.755 30.555V31.698C10.755 31.995 10.512 32.238 10.215 32.238C9.91798 32.238 9.67498 31.995 9.67498 31.698V30.555L8.68498 31.131C8.59498 31.176 8.50498 31.203 8.41498 31.203C8.22598 31.203 8.04598 31.104 7.94698 30.933C7.79398 30.672 7.88398 30.339 8.14498 30.195L9.13498 29.628L8.14498 29.052C7.88398 28.899 7.79398 28.566 7.94698 28.314C8.09098 28.053 8.42398 27.963 8.68498 28.116L9.67498 28.692V27.54C9.67498 27.243 9.91798 27 10.215 27C10.512 27 10.755 27.243 10.755 27.54V28.692L11.745 28.116C11.997 27.963 12.33 28.053 12.483 28.314C12.627 28.566 12.537 28.899 12.285 29.052L11.295 29.628L12.285 30.195C12.537 30.339 12.627 30.672 12.483 30.933Z" fill="#A8BFFF"/>
<path d="M19.6829 30.933C19.5839 31.104 19.3949 31.203 19.2149 31.203C19.1159 31.203 19.0259 31.176 18.9449 31.131L17.9549 30.555V31.698C17.9549 31.995 17.7119 32.238 17.4149 32.238C17.1179 32.238 16.8749 31.995 16.8749 31.698V30.555L15.8849 31.131C15.7949 31.176 15.7049 31.203 15.6149 31.203C15.4259 31.203 15.2459 31.104 15.1469 30.933C14.9939 30.672 15.0839 30.339 15.3449 30.195L16.3349 29.628L15.3449 29.052C15.0839 28.899 14.9939 28.566 15.1469 28.314C15.2909 28.053 15.6239 27.963 15.8849 28.116L16.8749 28.692V27.54C16.8749 27.243 17.1179 27 17.4149 27C17.7119 27 17.9549 27.243 17.9549 27.54V28.692L18.9449 28.116C19.1969 27.963 19.5299 28.053 19.6829 28.314C19.8269 28.566 19.7369 28.899 19.4849 29.052L18.4949 29.628L19.4849 30.195C19.7369 30.339 19.8269 30.672 19.6829 30.933Z" fill="#A8BFFF"/>
<path d="M26.883 30.933C26.784 31.104 26.595 31.203 26.415 31.203C26.316 31.203 26.226 31.176 26.145 31.131L25.155 30.555V31.698C25.155 31.995 24.912 32.238 24.615 32.238C24.318 32.238 24.075 31.995 24.075 31.698V30.555L23.085 31.131C22.995 31.176 22.905 31.203 22.815 31.203C22.626 31.203 22.446 31.104 22.347 30.933C22.194 30.672 22.284 30.339 22.545 30.195L23.535 29.628L22.545 29.052C22.284 28.899 22.194 28.566 22.347 28.314C22.491 28.053 22.824 27.963 23.085 28.116L24.075 28.692V27.54C24.075 27.243 24.318 27 24.615 27C24.912 27 25.155 27.243 25.155 27.54V28.692L26.145 28.116C26.397 27.963 26.73 28.053 26.883 28.314C27.027 28.566 26.937 28.899 26.685 29.052L25.695 29.628L26.685 30.195C26.937 30.339 27.027 30.672 26.883 30.933Z" fill="#A8BFFF"/>
</g>
<defs>
<clipPath id="clip0_1982_4704">
<rect width="36" height="36" fill="white"/>
</clipPath>
</defs>
</svg>
