<svg width="36" height="36" viewBox="0 0 36 36" fill="none" xmlns="http://www.w3.org/2000/svg">
<g clip-path="url(#clip0_1982_4602)">
<path d="M24.3477 18.5112L26.2017 16.6572C26.5041 16.3548 26.5041 15.8643 26.2017 15.5619L24.3477 13.7079C24.1524 13.5126 24.0759 13.2273 24.147 12.96L24.8256 10.4274C24.9363 10.0143 24.6915 9.58951 24.2775 9.47881L21.7449 8.80021C21.4776 8.72821 21.2688 8.51941 21.1968 8.25211L20.5182 5.71951C20.4075 5.30641 19.9827 5.06071 19.5696 5.17141L17.037 5.85001C16.7697 5.92201 16.4844 5.84551 16.2891 5.64931L14.4351 3.79531C14.1327 3.49291 13.6422 3.49291 13.3398 3.79531L11.4858 5.64931C11.2905 5.84461 11.0052 5.92111 10.7379 5.85001L8.20527 5.17141C7.79217 5.06071 7.36737 5.30551 7.25667 5.71951L6.57807 8.25211C6.50607 8.51941 6.29727 8.72821 6.02997 8.80021L3.49737 9.47881C3.08427 9.58951 2.83857 10.0143 2.94927 10.4274L3.62787 12.96C3.69987 13.2273 3.62337 13.5126 3.42717 13.7079L1.57317 15.5619C1.27077 15.8643 1.27077 16.3548 1.57317 16.6572L3.42717 18.5112C3.62247 18.7065 3.69897 18.9918 3.62787 19.2591L2.94927 21.7917C2.83857 22.2048 3.08337 22.6296 3.49737 22.7403L6.02997 23.4189C6.29727 23.4909 6.50607 23.6997 6.57807 23.967L7.25667 26.4996C7.36737 26.9127 7.79217 27.1584 8.20527 27.0477L10.7379 26.3691C11.0052 26.2971 11.2905 26.3736 11.4858 26.5698L13.3398 28.4238C13.6422 28.7262 14.1327 28.7262 14.4351 28.4238L16.2891 26.5698C16.4844 26.3745 16.7697 26.298 17.037 26.3691L19.5696 27.0477C19.9827 27.1584 20.4075 26.9136 20.5182 26.4996L21.1968 23.967C21.2688 23.6997 21.4776 23.4909 21.7449 23.4189L24.2775 22.7403C24.6906 22.6296 24.9363 22.2048 24.8256 21.7917L24.147 19.2591C24.075 18.9918 24.1515 18.7065 24.3477 18.5112Z" fill="#FFCD00"/>
<path d="M13.8896 23.4756C17.9262 23.4756 21.1986 20.2033 21.1986 16.1667C21.1986 12.1301 17.9262 8.85782 13.8896 8.85782C9.85306 8.85782 6.58075 12.1301 6.58075 16.1667C6.58075 20.2033 9.85306 23.4756 13.8896 23.4756Z" fill="#FFAA00"/>
<path d="M28.9143 32.4297H11.817V23.5719L28.6866 24.7104L28.9143 32.4297Z" fill="#E5E8EB"/>
<path d="M22.6701 27.099C26.5715 27.099 29.7342 23.9363 29.7342 20.0349C29.7342 16.1335 26.5715 12.9708 22.6701 12.9708C18.7687 12.9708 15.606 16.1335 15.606 20.0349C15.606 23.9363 18.7687 27.099 22.6701 27.099Z" fill="#E5E8EB"/>
<path d="M28.6595 32.4297C31.9679 32.4297 34.6499 29.7477 34.6499 26.4393C34.6499 23.1309 31.9679 20.4489 28.6595 20.4489C25.3511 20.4489 22.6691 23.1309 22.6691 26.4393C22.6691 29.7477 25.3511 32.4297 28.6595 32.4297Z" fill="#E5E8EB"/>
<path d="M11.8169 32.4297C14.8888 32.4297 17.3789 29.9395 17.3789 26.8677C17.3789 23.7959 14.8888 21.3057 11.8169 21.3057C8.74514 21.3057 6.25494 23.7959 6.25494 26.8677C6.25494 29.9395 8.74514 32.4297 11.8169 32.4297Z" fill="#E5E8EB"/>
<path d="M15.606 25.6113C18.1201 25.6113 20.1582 23.5732 20.1582 21.0591C20.1582 18.545 18.1201 16.5069 15.606 16.5069C13.0919 16.5069 11.0538 18.545 11.0538 21.0591C11.0538 23.5732 13.0919 25.6113 15.606 25.6113Z" fill="#E5E8EB"/>
</g>
<defs>
<clipPath id="clip0_1982_4602">
<rect width="36" height="36" fill="white"/>
</clipPath>
</defs>
</svg>
