<svg width="36" height="36" viewBox="0 0 36 36" fill="none" xmlns="http://www.w3.org/2000/svg">
<g clip-path="url(#clip0_1936_3917)">
<path d="M31.5117 21.1023L33.9066 18.7074C34.2972 18.3168 34.2972 17.6832 33.9066 17.2926L31.5117 14.8977C31.2588 14.6448 31.1598 14.2767 31.2525 13.9311L32.1291 10.6596C32.2722 10.1259 31.9554 9.5769 31.4217 9.4338L28.1502 8.5572C27.8046 8.4645 27.5355 8.1945 27.4428 7.8498L26.5662 4.5783C26.4231 4.0446 25.8741 3.7278 25.3404 3.8709L22.0689 4.7475C21.7233 4.8402 21.3552 4.7412 21.1023 4.4883L18.7074 2.0934C18.3168 1.7028 17.6832 1.7028 17.2926 2.0934L14.8977 4.4883C14.6448 4.7412 14.2767 4.8402 13.9311 4.7475L10.6596 3.8709C10.1259 3.7278 9.57693 4.0446 9.43383 4.5783L8.55723 7.8498C8.46453 8.1954 8.19453 8.4645 7.84983 8.5572L4.57833 9.4338C4.04463 9.5769 3.72783 10.1259 3.87093 10.6596L4.74753 13.9311C4.84023 14.2767 4.74123 14.6448 4.48833 14.8977L2.09343 17.2926C1.70283 17.6832 1.70283 18.3168 2.09343 18.7074L4.48833 21.1023C4.74123 21.3552 4.84023 21.7233 4.74753 22.0689L3.87093 25.3404C3.72783 25.8741 4.04463 26.4231 4.57833 26.5662L7.84983 27.4428C8.19543 27.5355 8.46453 27.8055 8.55723 28.1502L9.43383 31.4217C9.57693 31.9554 10.1259 32.2722 10.6596 32.1291L13.9311 31.2525C14.2767 31.1598 14.6448 31.2588 14.8977 31.5117L17.2926 33.9066C17.6832 34.2972 18.3168 34.2972 18.7074 33.9066L21.1023 31.5117C21.3552 31.2588 21.7233 31.1598 22.0689 31.2525L25.3404 32.1291C25.8741 32.2722 26.4231 31.9554 26.5662 31.4217L27.4428 28.1502C27.5355 27.8046 27.8055 27.5355 28.1502 27.4428L31.4217 26.5662C31.9554 26.4231 32.2722 25.8741 32.1291 25.3404L31.2525 22.0689C31.1598 21.7233 31.2588 21.3552 31.5117 21.1023Z" fill="#FFCD00"/>
<path d="M18 27.5166C23.2151 27.5166 27.4428 23.2889 27.4428 18.0738C27.4428 12.8587 23.2151 8.63101 18 8.63101C12.7849 8.63101 8.55719 12.8587 8.55719 18.0738C8.55719 23.2889 12.7849 27.5166 18 27.5166Z" fill="#FFAA00"/>
</g>
<defs>
<clipPath id="clip0_1936_3917">
<rect width="36" height="36" fill="white"/>
</clipPath>
</defs>
</svg>
